<svg xmlns="http://www.w3.org/2000/svg" width="500" height="500">
  <path fill="none" d="M-1-1h502v502H-1z"/>
  <g>
    <path fill-rule="evenodd" stroke="null" d="M250.833 264.263c-.638-.264-1.165-.584-1.172-.712-.014-.269-4.804-2.45-6.02-2.741-1.886-.451-3.64-1.386-4.375-2.331-2.809-3.61-6.737-4.424-7.97-1.65-.336.758-1.115 2.23-1.728 3.27-.614 1.04-1.186 2.414-1.272 3.054-.144 1.08-.624 2.27-2.122 5.269-.329.658-.662 1.95-.74 2.872-.131 1.556-1.397 4.398-1.973 4.428-1.032.054-.125-5.668 1.31-8.266 1.323-2.395 1.88-3.756 2.44-5.966.254-1 .631-2.048.839-2.329.807-1.09 1.819-3.963 2.255-6.406.25-1.407.58-2.645.733-2.75 1.815-1.258-5.29-9.328-8.084-9.182-.267.014-1.015-.502-1.663-1.147-1.611-1.608-3.073-2.524-6.34-3.98-1.533-.682-3.268-1.613-3.857-2.067-.589-.456-1.733-1.048-2.542-1.317-.81-.27-2.029-1.008-2.71-1.64-.683-.633-1.835-1.389-2.56-1.679-.726-.29-1.966-1.122-2.756-1.85-.79-.728-2.13-1.625-2.977-1.995-.848-.368-2.415-1.303-3.483-2.074-2.648-1.914-3.899-2.401-5.902-2.296-1.605.084-1.809-.002-3.536-1.485-1.106-.95-2.808-1.965-4.29-2.559-1.35-.541-3.297-1.523-4.328-2.182-2.373-1.518-3.715-1.524-5.57-.025-.714.575-1.428 1.053-1.587 1.062-.158.008-.455.239-.66.513-.204.275-2.108 1.79-4.23 3.366-3.64 2.705-4.853 4.089-4.782 5.452.038.719-1.275 1.655-2.73 1.947-1.603.321-3.898 2.374-3.842 3.436.031.595-1.616 1.889-2.46 1.933-.364.019-.75.193-.855.386-.106.194-1.638 1.156-3.405 2.139-1.766.983-3.537 2.102-3.935 2.486-.917.887-5.151 3.848-5.53 3.868-1.183.062-3.311 3.33-3.226 4.956.105 2.01-.513 2.835-2.028 2.707-1.46-.122-4.526.917-5.565 1.886-.257.24-1.437 1.097-2.623 1.906-1.187.809-2.667 1.992-3.29 2.63-1.503 1.539-2.735 2.603-3.035 2.619-.133.007-.704.404-1.268.882-.563.479-1.12.875-1.24.881-.117.006-1.275.874-2.572 1.93-1.296 1.056-2.536 1.928-2.754 1.94-.59.03-2.155.971-2.901 1.744-2.526 2.612-6.914 3.847-9.929 2.795-.733-.255-2.361-.509-3.62-.563-1.258-.054-3.254-.317-4.435-.585-1.205-.273-3.794-.477-5.9-.466-2.347.013-4.312-.16-5.246-.458-1.003-.321-3.05-.472-6.226-.46-2.79.01-5.411-.16-6.387-.415-2.026-.53-5.244-.937-6.772-.857-.624.033-1.282-.067-1.46-.224-.297-.26-1.63-.516-5.26-1.012-.723-.1-1.644-.337-2.046-.529-.498-.237-2.949-.231-7.7.018-7.893.413-7.402.224-8.497 3.283l-.618 1.727 2.135 39.156 2.135 39.156 3.59-.007c2.236-.005 3.906.154 4.429.42.7.359 3.906.28 19.558-.478 11.235-.545 19.353-.807 20.301-.656.869.138 4.256.111 7.527-.06 6.593-.346 8.763.109 10.798 2.262 1.913 2.023 5.459 4.324 6.873 4.461 1.043.101 1.724.448 2.734 1.39 4.6 4.293 8.685 6.668 11.26 6.544.452-.022 1.137.157 1.521.397.385.24 1.723.632 2.974.871 1.252.239 2.43.541 2.62.671.19.131 1.746.404 3.46.608 1.712.202 3.753.547 4.533.764.78.218 1.93.37 2.553.337.623-.033 2.005.134 3.07.37 1.792.4 2.016.388 2.975-.155 1.474-.835 3.198-.827 5.017.02.865.404 1.822.723 2.126.71.304-.015 1.232.323 2.062.75 1.14.586 2.11.783 3.959.808 1.347.018 2.602.137 2.788.264.819.56 3.15.546 3.927-.024 1.026-.752.983-.936-.69-2.97-.83-1.008-1.316-1.864-1.157-2.04.489-.543 2.953.796 3.673 1.996.387.645 1.318 1.456 2.184 1.902.83.428 3.595 2.583 6.144 4.79 8.066 6.98 10.28 7.609 13.742 3.9.901-.967 1.942-2.015 2.313-2.328.37-.315 1.532-1.49 2.583-2.61 1.05-1.122 2.995-2.929 4.32-4.017 4.945-4.058 5.17-5.81 1.071-8.32-1.039-.637-3.222-2.189-4.853-3.45-1.63-1.26-3.54-2.63-4.246-3.04-1.195-.7-5.027-3.824-9.045-7.377-.949-.839-1.957-1.513-2.24-1.498-.467.024-1.868-.963-6.384-4.499-.842-.659-2.136-1.538-2.876-1.953-.74-.416-1.886-1.267-2.547-1.891-.662-.626-1.731-1.422-2.378-1.77-.646-.348-1.934-1.299-2.86-2.114-2.686-2.363-3.008-2.197-9.131 4.682-5.447 6.118-6.517 8.253-4.783 9.535.311.23 1.18 1.12 1.932 1.98a60.243 60.243 0 0 0 2.467 2.644c.606.596 1.414 1.577 1.795 2.18.382.601 1.273 1.648 1.982 2.328 1.471 1.408 1.864 3.03.749 3.089-.35.018-.92-.345-1.267-.808-.346-.462-1.262-1.423-2.035-2.134-.773-.712-1.856-1.84-2.407-2.509a25.96 25.96 0 0 0-2.166-2.269c-.64-.58-1.392-1.525-1.669-2.102-.575-1.196-1.701-2.25-2.792-2.611-1.264-.42-1.114-2.044.257-2.784.608-.33 1.401-1.149 1.762-1.822.662-1.235 2.421-3.434 4.695-5.867a579.123 579.123 0 0 0 1.482-1.592c.313-.343 2.663-3.542 5.274-7.182 1.582-2.207 2.132-3.292 2.463-4.862.235-1.112.589-2.35.786-2.754.197-.402.324-1.39.282-2.196-.042-.805.224-2.334.592-3.398.955-2.757 2.035-7.277 2.196-9.194.076-.902.24-1.792.363-1.978.42-.632.754-3.618.788-7.036.018-1.873.15-3.77.293-4.216.697-2.17-1.967-2.056-3.97.17-.674.747-1.966 1.859-2.873 2.471-.905.612-2.556 1.983-3.667 3.046-1.112 1.064-2.619 2.367-3.35 2.895-.73.528-1.556 1.35-1.834 1.828-.279.478-1.013 1.25-1.632 1.716-.619.467-2.251 2.047-3.627 3.511s-2.7 2.82-2.943 3.013c-1.784 1.413-3.195 2.289-3.736 2.317-.35.019-1.894.74-3.432 1.602-1.538.864-3.3 1.78-3.914 2.036a34.093 34.093 0 0 0-2.071.959c-.525.27-1.777.764-2.782 1.094-1.006.331-1.911.751-2.011.933-.1.182-.545.35-.99.374-.444.023-1.979.696-3.411 1.495-2.647 1.476-5.555 2.565-7.06 2.644-1.11.058-4.066 3.13-5.127 5.329-1.174 2.43-1.884 2.353-4.024-.442-.925-1.209-1.697-2.447-1.716-2.751-.057-.904-.82-2.134-1.61-2.594-1.047-.61-36.989 1.066-37.74 1.76-1.187 1.094-8.426 1.265-8.279.195.108-.782 1.915-1.09 8.61-1.47 3.785-.214 5.863-.461 6.326-.753.985-.619 4.213-1.092 12.238-1.793 4.749-.415 7.166-.75 7.479-1.038.443-.41 2.957-1.023 6.711-1.637.979-.16 1.938-.43 2.132-.598.194-.17 1.573-.466 3.067-.658 4.188-.54 4.241-.612 3.776-5.166-.504-4.918-.311-7.36.581-7.408.517-.027.703.241.9 1.291.277 1.481 3.765 6.863 5.472 8.443.58.536 1.515 1.794 2.079 2.795 1.508 2.676 3.858 3.728 5.408 2.423.334-.28.842-.528 1.128-.549.285-.02 1.123-.546 1.862-1.169 1.604-1.352 3.75-2.68 4.434-2.743.271-.024 1.189-.72 2.04-1.547.851-.826 2.397-2.108 3.436-2.848 1.038-.74 2.351-1.857 2.917-2.48.567-.625 1.355-1.34 1.752-1.586.396-.248 1.344-.835 2.105-1.304.763-.47-.45-1.235 2.632-1.98 3.082-.746 1.813-1.398 2.505-1.728.69-.33 2.108-1.508 3.15-2.618 1.04-1.11 2.39-2.258 3-2.55.608-.293 1.496-1.05 1.974-1.683.477-.633 1.311-1.395 1.854-1.693 1.463-.803 3.67-2.494 4.898-3.755.596-.61 2.048-1.672 3.226-2.358 1.177-.686 2.666-1.719 3.306-2.295a98.66 98.66 0 0 1 2.544-2.19c2.211-1.829 3.109-3.308 3.24-5.339.064-.979.426-2.412.804-3.184.38-.773.672-1.732.65-2.13-.02-.4.156-.968.391-1.264.36-.452 1.695-3.184 3.288-6.726.207-.46.48-2.016.608-3.459.439-4.977 2.15-6.528 2.58-2.34.092.901.255 1.579.362 1.507.107-.073.471.144.81.48.34.338.74.607.89.6.15-.009 1.194.591 2.32 1.331 5.245 3.453 7.072 3.865 10.737 2.416 5.68-2.245 4.664.317-3.269 8.238-.718.718-1.299 1.46-1.29 1.65.01.19-1.023 1.476-2.298 2.86l-2.315 2.514.133 2.545c.126 2.388.245 2.746 1.937 5.816l1.803 3.271.178 3.405c.161 3.07.265 3.526 1.06 4.65.485.686.898 1.56.918 1.942.06 1.156 1.89 3.798 2.985 4.312 1.98.928 4.33 1.475 5.967 1.389.911-.048 1.803.033 1.98.18 1.786 1.465 6.261 1.402 7.539-.107 1.692-2 3.451-4.967 3.593-6.06.076-.59.746-2.264 1.488-3.72.743-1.457 1.423-3.255 1.513-3.996.158-1.305 1.25-5.048 1.856-6.359.163-.354.529-1.315.814-2.139.757-2.189 1.952-4.345 2.422-4.37.55-.029.554.683.01 1.488-1.508 2.227-.137 6.254 2.494 7.322.642.26 1.688.886 2.325 1.391.637.504 1.927 1.306 2.868 1.782.94.476 2.028 1.132 2.416 1.459.82.69 3.035 1.868 5.181 2.754.826.342 2.288 1.146 3.25 1.79.962.643 2.623 1.51 3.692 1.927 1.068.417 2.724 1.083 3.68 1.481 2.147.894 1.953.985 4.411-2.093a278.765 278.765 0 0 1 3.696-4.526c.912-1.083 1.649-2.123 1.64-2.31-.01-.188.919-2.07 2.065-4.183s2.072-4.062 2.057-4.331c-.014-.27.382-1.121.88-1.89.905-1.396 1.101-3.302.473-4.565M248.88 303.44c-.103-.264-.555-.876-1.002-1.36-.447-.484-.827-1.14-.844-1.455-.028-.55-1.03-1.604-1.5-1.58-.122.007-1.092-.513-2.155-1.153-1.064-.64-2.836-1.551-3.938-2.023-2.579-1.105-3.43-1.556-4.398-2.336-.433-.35-1.885-1.129-3.226-1.731-1.341-.603-2.9-1.472-3.462-1.932-4.14-3.381-9.15-3.303-8.969.14.027.509-.487 1.914-1.141 3.122-.655 1.207-1.18 2.41-1.166 2.67.014.263-.442 1.422-1.013 2.578-1.21 2.452-2.003 4.324-2.49 5.888-.783 2.51-4.125 3.237-7.555 1.645-.368-.17-1.92-.357-3.449-.415-1.529-.057-3.183-.18-3.677-.273-2.664-.505-1.62 2.245 2.267 5.973 1.084 1.04 2.235 2.25 2.557 2.688.625.851 2.335 2.212 2.776 2.208.317-.003 2.31 1.328 3.75 2.505.567.462 1.664 1.099 2.441 1.415.776.316 1.85.96 2.384 1.429 1.197 1.051 2.644 1.909 3.174 1.881.218-.011 1.095.506 1.949 1.15.853.645 2.304 1.538 3.225 1.985.922.447 1.917 1.007 2.212 1.243.297.236 1.043.402 1.661.37.617-.032 1.422.126 1.788.351.751.463 2.185.72 4.654.834l1.687.078 1.239-1.875c.68-1.03 1.233-1.978 1.226-2.105-.006-.126.783-1.179 1.755-2.339 2.538-3.032 3.544-4.534 4.296-6.424 1.449-3.636 3.037-7.177 3.225-7.187.109-.006.43-.867.714-1.914.285-1.047.607-2.056.716-2.241.367-.622.479-1.327.289-1.81m-22.274 26.23c-.24-.275-1.11-.778-1.936-1.12-3.21-1.324-6.372-2.848-7.11-3.426-.424-.332-1.908-1.274-3.298-2.092-1.389-.819-2.603-1.562-2.697-1.65-.095-.09-.625-.41-1.18-.716a15.888 15.888 0 0 1-1.86-1.228c-.468-.371-1.597-.906-2.51-1.188-.913-.282-2.493-1.016-3.513-1.634-1.02-.616-2.454-1.361-3.188-1.653-.733-.293-1.41-.615-1.506-.717-.53-.567-4.48-2.953-5.435-3.282-1.07-.37-4.07-2.183-5.52-3.337-1.395-1.11-6.137-3.924-7.798-4.626-.946-.4-1.918-.941-2.161-1.205-2.096-2.272-3.87-1.597-5.567 2.118-.463 1.011-1.148 2.295-1.522 2.854-.375.558-.955 1.837-1.29 2.84-.336 1.006-.717 1.98-.848 2.167-.898 1.282-1.78 3.723-1.726 4.772.049.93-.264 1.75-1.29 3.384-2.222 3.534-2.043 4.168 2.303 8.147 1.933 1.77 4.131 3.573 4.885 4.007.755.435 1.712 1.204 2.127 1.709.416.505 1.395 1.175 2.176 1.49 1.644.66 4.087 2.646 3.831 3.112-.095.175.037.223.296.108.681-.302 1.686.259 4.264 2.378 2.577 2.12 3.704 2.964 5.106 3.663.626.313 1.449.857 1.828 1.21.38.353 1.222 1.002 1.871 1.44a40.963 40.963 0 0 1 2.202 1.621c.562.452 1.945 1.208 3.074 1.679 1.128.472 2.242 1.064 2.475 1.317.234.253.614.449.845.437.233-.012.476.085.543.217.255.5 6.04 2.811 6.922 2.765 1.32-.07 3.064-1.096 3.881-2.288.386-.562 1.424-1.954 2.307-3.093.882-1.14 1.597-2.22 1.587-2.4-.009-.18.712-1.134 1.603-2.122 2.078-2.304 4.96-5.96 5.072-6.433.181-.765.802-2.073 1.733-3.642 1.44-2.43 1.846-4.639 1.024-5.584m-37.752-30.59c-.188-.26-.376-1.077-.417-1.815-.042-.738-.485-2.152-.985-3.14-.667-1.316-.94-2.364-1.022-3.915-.061-1.164-.332-2.577-.603-3.141-.27-.563-.628-1.586-.794-2.274-.167-.686-.862-2.296-1.544-3.575-.683-1.28-1.25-2.462-1.258-2.627-.009-.164-.351-.96-.76-1.77-1.387-2.737-3.334-1.343-4.853 3.476-.288.913-1.379 3.078-2.424 4.811-3.022 5.01-2.47 6.465 3.427 9.038 3.605 1.574 4.56 2.175 4.598 2.895.124 2.372 4.42 5.077 6.555 4.127.561-.25.604-1.366.08-2.09m-25.984 60.44c-.928.049-3.314-2.541-3.326-3.61-.004-.344.076-.444.178-.224s.393.388.647.375.468.112.477.279c.009.167.315.382.68.477 1.105.288 2.283 2.654 1.344 2.703M265.35 78.98c-16.375 34.413-16.448 34.585-16.233 34.59.214.004-.157 1.094-.825 2.424-2.193 4.364-2.343 3.875 3.536 11.603 2.968 3.901 5.623 7.094 5.898 7.094.453 0 39.59-83.342 39.59-84.306 0-.427-2.571-.414-12.298.065m21.235.491c1.485.734.883.26 1.593-.02m-18.128 19.791c-30.99 66.09-30.48 64.958-29.604 65.616l1.352 1.017c.29.22.864.47 1.272.557.409.085 3.605 1.49 7.103 3.119 80.132 37.328 104.09 48.538 104.3 48.805.14.177.595.398 1.012.49.416.092 8.6 3.813 18.186 8.268 9.586 4.456 17.555 8.1 17.71 8.1.154 0 1.157-1.888 2.227-4.197 14.825-31.957 30.231-64.797 30.492-64.997.182-.14.407-.598.5-1.017.094-.42 1.64-3.95 3.436-7.842 1.797-3.894 3.21-7.132 3.139-7.196-.071-.066-6.884-3.26-15.139-7.1-8.255-3.84-21.763-10.138-30.018-13.998-8.255-3.86-20.275-9.465-26.711-12.455-6.436-2.991-11.817-5.588-11.957-5.771-.139-.183-.597-.405-1.017-.493-.42-.09-15.47-7.014-33.443-15.39-17.974-8.378-32.885-15.231-33.137-15.231-.253 0-4.62 8.872-9.703 19.715m30.302-12.23c.174-.176 1.195.13 2.268.677 2.798 1.427 3.2 1.188.466-.276-2.627-1.406-3.052-1.502-3.052-.678m-38.414 12.39c-6.61 8.174-6.589 8.122-3.816 8.953 2.678.802 2.791.53-3.052 7.243-5.83 6.697-5.642 6.325-3.301 6.531l1.787.158-9.037 9.74c-4.971 5.359-9.124 9.66-9.23 9.56-.106-.1 2.356-3.747 5.47-8.106 6.397-8.953 6.486-9.166 3.627-8.709-1.976.315-2.945-.591-1.552-1.451l22.453-31.815c1.377 0 2.502.15 2.502.332m66.413 8.3l-1.446 1.51 7.075 3.367c3.89 1.852 7.933 3.715 8.983 4.142 1.05.426 1.908.941 1.908 1.144 0 .203.285.373.635.378.35.005 6.826 2.905 14.39 6.445 15.552 7.276 14.829 7.06 15.29 4.606.573-3.055-7.753-10.795-14.707-13.672-1.91-.788-3.79-1.753-4.18-2.143-.389-.39-.843-.672-1.008-.629-.166.044-2.931-1.11-6.144-2.566-9.177-4.156-18.213-5.278-20.796-2.582m69.433 34.884c-24.77 14.358 4.263 1.741 4.38 1.626.114-.116-.767-.643-1.958-1.17m9.534 4.825c.28 0-.521-.552-1.78-1.226-1.26-.674-2.519-1.227-2.8-1.227-.28 0 .522.553 1.781 1.227m-185.1 1.552c-1.533 3.154-1.362 3.595.217.56.705-1.356 1.196-2.552 1.09-2.66m195.849 3.086c.466.975.937 1.683 1.047 1.572m-3.944.215c1.539.813 3.027 1.478 3.307 1.478.28 0-.751-.665-2.29-1.478-1.539-.814-3.027-1.478-3.306-1.478-.28 0 .75.664 2.289 1.478m8.162 13.736c-.198 0-.362.287-.362.637s-2.93 6.931-6.508 14.627c-18.93 40.701-23.836 51.156-24.125 51.387-.175.14-.393.598-.485 1.018-.093.42-1.284 3.159-2.648 6.086-1.364 2.928-2.433 5.37-2.375 5.426.057.057-25.538-12.043 9.324-.182 33.26-51.435 34.36-53.954 35.616-56.612-20.638-10.229 3.26-7.149 4.327-9.357l1.942-4.014-3.39-4.38c-9.404-12.15-8.124-11.176-9.748-7.426m-.897 28.111c-2.754 11.116-2.594 10.828-4.898 8.805l-1.786-1.568-.293 1.656c-.16.91-.658 4.517-1.107 8.016-.448 3.498-.985 7.047-1.192 7.886l-.376 1.526-1.244-1.902c-1.734-2.65-1.58-2.918-4.244 7.372-2.137 8.251-3.845 13.037-3.126 8.76.14-.83.838-6.319 1.551-12.194.714-5.877 1.42-11.243 1.57-11.924l.272-1.238 1.195 1.492c1.591 1.993 1.56 2.07 2.841-6.654 1.31-8.918 1.224-8.757 3.726-7.057 2.509 1.704 2.443 1.827 4.084-7.69 2.077-12.046 1.687-11.158 3.853-8.777M315.505 168.66c-1.179 2.867-1.238 2.726 1.526 3.612 1.328.426 9.161 2.962 17.406 5.637 22.48 7.295 22.44 6.88-.368-3.76-18.69-8.719-17.395-8.337-18.564-5.489m-9.032 19.707c0 .361 18.44 6.603 32.478 10.993l3.731 1.167 3.264-6.886c3.51-7.403 3.592-7.642 2.629-7.655-.35-.004-8.453-2.561-18.005-5.68-9.554-3.12-17.474-5.675-17.602-5.675-.128 0-1.642 2.994-3.363 6.653m-9.238 25.709c1.392.098 14.497 4.458 14.672 4.88.094.228.338.312.542.186.205-.127 4.565 1.14 9.69 2.813 5.125 1.674 9.358 2.978 9.406 2.898.047-.08 1.523-3.218 3.28-6.973 3.348-7.16 3.385-7.556.754-7.982-.317-.05-8.024-2.522-17.124-5.488-9.1-2.968-16.64-5.397-16.755-5.397-.115 0-1.641 3.09-3.39 6.868m-7.633 16.159c-2.97 6.19-3.01 6.289-3.221 7.665-.12.785 1.455 1.436 10.288 4.254 5.737 1.83 10.508 3.532 10.6 3.783.095.25.345.347.557.217.212-.13 3.534.799 7.384 2.065 3.85 1.268 7.059 2.232 7.131 2.143.348-.424 5.775-11.999 6.073-12.948.328-1.05-.26-1.613-2.092-1.998-.341-.071-3.089-.937-6.106-1.925-9.307-3.046-27.677-8.984-27.776-8.98-.052.003-1.329 2.58-2.838 5.724m-5.861 12.843c-.176.699-.557 1.272-.849 1.272-.29 0-.399.21-.24.467.16.257.002.779-.35 1.157-.353.38-.71 1.028-.792 1.44-.084.414-.943 2.436-1.908 4.492-1.954 4.16-2.034 4.48-1.121 4.494.35.006 8.405 2.563 17.899 5.682 9.495 3.12 17.416 5.672 17.603 5.672.187 0 1.778-3.117 3.536-6.925 3.574-7.745 3.628-7.278-1.007-8.633-1.539-.451-9.35-2.972-17.355-5.605-16.821-5.53-15.014-5.117-15.416-3.513m13.07 34.807c.062.014 2.505.831 5.428 1.816 2.924.984 5.392 1.79 5.487 1.79.237 0 4.716-9.698 4.716-10.213 0-.23-7.155-2.744-15.9-5.586-8.744-2.843-16.149-5.37-16.455-5.619-.305-.247-.674-.333-.82-.187-.144.145-.867.035-1.605-.245m-1.852 10.45"/>
  </g>
</svg>
