<svg width="500" height="500" xmlns="http://www.w3.org/2000/svg">
 <g>
  <title>background</title>
  <rect x="-1" y="-1" width="502" height="502" id="canvas_background" fill="none"/>
 </g>

 <g>
  <title>Layer 1</title>
  <path stroke="null" d="m128.23946,277.836118c-0.333394,0.700261 -0.723448,1.272349 -0.866464,1.272349c-0.302763,0 -3.030407,5.242587 -3.427904,6.588303c-0.616654,2.088678 -1.767321,4.001823 -2.87066,4.76987c-4.213569,2.936593 -5.356802,7.294121 -2.318985,8.838569c0.830252,0.422582 2.435087,1.381928 3.56534,2.130471c1.130242,0.749486 2.637535,1.472024 3.349867,1.605744c1.20362,0.22568 2.509374,0.833071 5.783101,2.689579c0.718821,0.406761 2.148122,0.856257 3.17714,0.997444c1.73761,0.239603 4.849738,1.825843 4.849738,2.473162c0,1.159964 -6.363554,-0.193185 -9.191479,-1.954016c-2.607847,-1.624338 -4.102126,-2.329236 -6.54651,-3.087043c-1.107033,-0.343635 -2.259564,-0.828433 -2.562327,-1.077312c-1.175751,-0.969586 -4.337104,-2.272566 -7.05079,-2.90503c-1.563042,-0.364059 -2.931956,-0.807043 -3.040613,-0.98352c-1.303924,-2.110012 -10.770297,5.382841 -10.770297,8.524679c0,0.29999 -0.623178,1.108886 -1.384735,1.797076c-1.897357,1.712549 -3.010869,3.297868 -4.834882,6.876199c-0.854405,1.67819 -2.000445,3.569057 -2.544676,4.202441c-0.54514,0.633351 -1.276975,1.881559 -1.626168,2.773119c-0.349215,0.891582 -1.249118,2.215908 -1.998604,2.943106c-0.749464,0.728119 -1.664244,1.975384 -2.03202,2.7713c-0.367776,0.796814 -1.373574,2.13787 -2.236355,2.981148c-0.862759,0.843277 -1.947492,2.292991 -2.411866,3.221728c-0.463431,0.928714 -1.60297,2.631023 -2.530742,3.783587c-2.302288,2.856725 -2.921738,4.230277 -2.921738,6.482418c0,1.804476 -0.107726,2.028292 -1.872295,3.87831c-1.13022,1.184116 -2.369142,3.032237 -3.121402,4.658439c-0.686326,1.482209 -1.902006,3.608985 -2.701638,4.726225c-1.841631,2.57067 -1.927068,4.076133 -0.355683,6.244668c0.603674,0.83398 1.097736,1.662402 1.097736,1.840721c0,0.178307 0.241467,0.524716 0.536786,0.7699c0.296273,0.245161 1.882513,2.469446 3.526333,4.941698c2.81865,4.239562 4.299028,5.681843 5.831417,5.681843c0.808885,0 1.781255,1.52683 2.022711,3.17623c0.266552,1.815637 2.433234,4.509842 3.627579,4.509842c0.668664,0 2.022723,1.92243 2.022723,2.871569c0,0.409568 0.172761,0.851631 0.382654,0.981657c0.210803,0.130003 1.199892,1.904791 2.198257,3.943334c0.998364,2.03851 2.149031,4.090033 2.556747,4.559034c0.939864,1.080107 4.012052,6.002291 4.012052,6.427646c0,1.330838 3.540256,3.908953 5.367963,3.908953c2.258643,0 3.148339,0.742042 2.916169,2.433223c-0.222907,1.628975 0.761557,5.12836 1.787779,6.350563c0.252617,0.30182 1.145086,1.676314 1.982783,3.053605c0.836787,1.378211 2.076608,3.10749 2.755501,3.843019c1.637329,1.775708 2.758286,3.219842 2.758286,3.556986c0,0.15045 0.411421,0.813556 0.91478,1.473855c0.503382,0.659389 0.91478,1.307651 0.91478,1.441371c0,0.132799 0.905517,1.482231 2.012539,2.997878c1.107965,1.515681 2.013448,2.957961 2.013448,3.203145c0,0.663106 0.963073,2.473162 1.785926,3.355447c2.779642,2.984898 3.907089,7.977675 2.550245,11.296888c-0.328768,0.807054 -0.709536,2.618031 -0.844198,4.025987c-0.134663,1.407933 -0.547027,3.63033 -0.916633,4.938891c-0.377073,1.334555 -0.75784,4.226582 -0.869282,6.588303c-0.123535,2.631966 -0.431845,4.825597 -0.82191,5.855535c-0.418854,1.105192 -0.708604,3.392602 -0.882285,6.954226c-0.151393,3.128824 -0.496858,6.058006 -0.839561,7.137171c-0.713241,2.240992 -1.358696,5.824893 -1.358696,7.543022c0,0.702091 -0.151393,1.433926 -0.337145,1.624304c-0.30831,0.317641 -0.674233,1.797076 -1.444144,5.837907c-0.154166,0.805213 -0.47457,1.823991 -0.713241,2.263281c-0.295353,0.54514 -0.432789,3.293208 -0.432789,8.63611c0,8.87386 -0.183888,8.31199 3.181766,9.719911l1.901074,0.794995l44.031292,-0.093791l44.031281,-0.09287l0.202449,-4.025987c0.125377,-2.507521 0.402135,-4.37052 0.731846,-4.940755c0.442973,-0.765274 0.543276,-4.364052 0.612926,-21.959459c0.049225,-12.62959 0.232204,-21.747691 0.456941,-22.801804c0.206165,-0.965858 0.375209,-4.766153 0.375209,-8.443868c0,-7.412997 0.637079,-9.819283 3.170616,-11.974838c2.381235,-2.026462 5.170141,-5.866685 5.406982,-7.444571c0.174591,-1.163681 0.602753,-1.906643 1.719039,-2.983955c5.083794,-4.905476 7.986972,-9.346577 7.999042,-12.240469c0.001853,-0.508928 0.24332,-1.265826 0.534934,-1.682827c0.292545,-0.417001 0.809839,-1.894584 1.151588,-3.283945c0.340861,-1.389338 0.749486,-2.693262 0.906426,-2.898518c0.157894,-0.204312 0.555381,-1.933569 0.884149,-3.843019c0.327825,-1.908507 0.83398,-4.176414 1.12373,-5.038274c0.289772,-0.862759 0.527523,-2.141598 0.527523,-2.84278c0,-0.700261 0.268382,-2.240071 0.59623,-3.421381c0.552585,-1.98559 0.552585,-2.237298 0,-3.34432c-0.848847,-1.702308 -0.739246,-3.63499 0.31855,-5.624275c0.503359,-0.946354 0.916644,-2.000468 0.919417,-2.342216c0.001864,-0.341771 0.435573,-1.362446 0.962153,-2.267929c0.724402,-1.243548 1.003024,-2.319939 1.139539,-4.391887c0.099372,-1.5101 0.30648,-2.909667 0.459714,-3.111206c0.675177,-0.885058 0.796848,-3.500328 0.204312,-4.403958c-0.782902,-1.195255 -0.991874,-1.1581 -3.370302,0.599014c-1.180388,0.871135 -2.168535,1.36522 -2.357083,1.177615c-0.579499,-0.580442 1.066173,-3.264441 2.45459,-4.001823c0.74577,-0.396554 1.709775,-1.392145 2.261417,-2.33759c0.528444,-0.905483 3.10749,-3.87922 5.731102,-6.607784c8.301772,-8.634257 9.136695,-11.078641 5.180381,-15.178914c-1.029961,-1.068014 -2.144394,-2.296708 -2.474105,-2.730417c-0.330621,-0.432789 -1.579739,-1.80543 -2.775005,-3.04991c-1.195232,-1.243548 -3.107467,-3.530049 -4.24978,-5.080987c-4.260021,-5.783112 -6.211241,-6.138817 -9.266732,-1.689328c-0.774537,1.127446 -2.643116,3.48454 -4.153182,5.238881c-1.509191,1.75433 -3.156727,3.816071 -3.659165,4.582254c-0.853484,1.299298 -4.582265,5.412563 -8.802358,9.708795c-0.996501,1.015084 -1.811909,2.106318 -1.811909,2.423937c0,0.524749 -1.188742,2.037612 -5.419053,6.893873c-0.788471,0.905483 -1.850928,2.305062 -2.359856,3.11023c-0.50894,0.805213 -1.530525,2.040396 -2.269771,2.745294c-0.740189,0.704898 -1.695841,1.857429 -2.123981,2.562316c-0.428129,0.703978 -1.570442,2.091486 -2.538175,3.081496c-2.8075,2.873433 -2.640342,3.244926 4.712302,10.514895c6.540941,6.466643 8.871087,7.792843 10.410897,5.923355c0.276736,-0.335292 1.326178,-1.257505 2.332919,-2.049693c1.005798,-0.792188 2.406297,-1.967007 3.110275,-2.611541c0.704887,-0.644523 1.851837,-1.492449 2.549302,-1.884377c0.697476,-0.392827 1.924294,-1.330838 2.727643,-2.085871c1.665176,-1.566759 3.507761,-1.912224 3.507761,-0.657526c0,0.392827 -0.441154,1.010424 -0.979804,1.37263c-0.53865,0.361286 -1.669813,1.331781 -2.513091,2.156464c-0.843277,0.824717 -2.172252,1.97261 -2.954233,2.551189a29.14956,29.14956 0 0 0 -2.671928,2.295776c-0.687247,0.684463 -1.791496,1.471081 -2.45459,1.74784c-1.375438,0.574896 -2.622703,1.775708 -3.092623,2.977465c-0.544231,1.392134 -2.35706,1.129333 -3.106547,-0.45227c-0.333394,-0.701182 -1.205473,-1.638273 -1.939138,-2.082188c-1.345716,-0.814476 -3.708357,-2.917078 -6.303202,-5.609431a650.263534,650.263534 0 0 0 -1.697705,-1.755284c-0.36589,-0.37147 -3.81515,-3.193836 -7.743607,-6.335685c-2.381235,-1.90387 -3.56534,-2.583684 -5.306667,-3.048024c-1.233331,-0.328791 -2.601335,-0.797769 -3.041534,-1.042953c-0.43929,-0.244274 -1.53981,-0.444859 -2.446248,-0.444859c-0.905483,0 -2.604108,-0.3882 -3.775222,-0.863702c-3.035044,-1.232421 -8.039891,-2.709083 -10.180569,-3.002549c-1.006707,-0.138379 -1.994865,-0.374266 -2.196393,-0.523772c-0.683564,-0.508019 -4.012984,-1.05783 -7.843012,-1.29649c-2.098896,-0.130036 -4.219149,-0.390064 -4.710438,-0.576726c-2.391442,-0.909233 -2.421163,2.084962 -0.043645,4.462447c0.798678,0.798712 1.969803,2.313438 2.603187,3.365665c0.633384,1.051306 2.072891,2.983034 3.200338,4.291595c1.127469,1.308561 2.49919,3.074972 3.048967,3.925683c0.54889,0.850711 1.422799,1.823991 1.941945,2.164818c0.519146,0.339918 1.341999,1.20828 1.828651,1.929875c0.486651,0.721629 2.162045,2.64498 3.723201,4.273955c1.561178,1.628964 3.003458,3.193836 3.204998,3.477096c1.480378,2.083109 2.379371,3.716711 2.379371,4.325033c0,0.393759 0.717912,2.167603 1.594594,3.942391c0.877659,1.775708 1.800793,3.804 2.052467,4.508899a38.281618,38.281618 0 0 0 0.953799,2.378451c0.273042,0.604583 0.75226,2.036657 1.063377,3.18363c0.31206,1.147871 0.729971,2.187107 0.927794,2.309699c0.198732,0.122592 0.361252,0.631532 0.361252,1.131197c0,0.499631 0.664027,2.260473 1.475719,3.913579c1.499893,3.054548 2.550279,6.379341 2.550279,8.072409c0,1.248175 3.269988,4.742012 5.6735,6.0617c2.65705,1.459011 2.527957,2.250278 -0.731813,4.485701c-1.409819,0.965858 -2.842802,1.758967 -3.185494,1.762684c-1.016947,0.010218 -2.440667,0.794052 -3.003458,1.653117c-0.744849,1.137687 -0.97794,41.537694 -0.244274,42.42182c1.157191,1.393998 0.923134,9.522122 -0.267461,9.293646c-0.870192,-0.167158 -1.108886,-2.211282 -1.141381,-9.74129c-0.018583,-4.256293 -0.17367,-6.600373 -0.47366,-7.137171c-0.636158,-1.14046 -0.976997,-4.78843 -1.291831,-13.827618c-0.185752,-5.349403 -0.419775,-8.07982 -0.724402,-8.446652c-0.433709,-0.521033 -0.972359,-3.375894 -1.44045,-7.621958c-0.122558,-1.107033 -0.367742,-2.19829 -0.546061,-2.425801c-0.179251,-0.227533 -0.429072,-1.791496 -0.557244,-3.47713c-0.358479,-4.728078 -0.436483,-4.792147 -5.570412,-4.5377c-5.54444,0.275849 -8.272084,-0.083573 -8.272084,-1.087518c0,-0.580442 0.31114,-0.773616 1.499893,-0.932431c1.677246,-0.223816 7.916345,-3.818867 9.78864,-5.640084c0.635248,-0.618518 2.100749,-1.593673 3.256087,-2.166682c3.089816,-1.534241 4.407663,-4.106764 3.035033,-5.922401c-0.295319,-0.391008 -0.542367,-0.974223 -0.548857,-1.29649c-0.006524,-0.321358 -0.547038,-1.291853 -1.201756,-2.156464c-1.42189,-1.877876 -2.784313,-4.363109 -2.814944,-5.13302c-0.01115,-0.305537 -0.738325,-1.375438 -1.615041,-2.378428c-0.876716,-1.003024 -2.223341,-2.81216 -2.991388,-4.020417c-0.768968,-1.207325 -1.943809,-2.745283 -2.610632,-3.416743c-0.666789,-0.672369 -1.420913,-1.59739 -1.674451,-2.057104c-0.254481,-0.458794 -0.857201,-1.556518 -1.338283,-2.43786c-0.482014,-0.882296 -1.411638,0.43198 -2.06639,-3.067562c-0.654752,-3.499519 -1.459931,-2.114684 -1.789632,-2.909645c-0.328768,-0.794052 -1.566736,-2.452738 -2.750841,-3.686068c-1.183196,-1.232399 -2.391442,-2.81308 -2.683055,-3.513341c-0.292557,-0.699318 -1.089405,-1.739474 -1.771071,-2.312506c-0.681667,-0.572998 -1.486868,-1.552802 -1.788689,-2.178742c-0.81542,-1.687476 -2.581853,-4.260941 -3.92291,-5.712519c-0.650092,-0.704887 -1.75525,-2.395158 -2.45459,-3.755718c-0.700238,-1.360594 -1.771049,-3.09076 -2.379349,-3.843019c-0.609243,-0.75226 -1.645706,-2.094259 -2.305095,-2.981181c-1.921487,-2.586491 -3.527242,-3.679578 -5.797035,-3.947051c-1.094008,-0.128161 -2.679327,-0.618507 -3.523514,-1.08845c-0.844221,-0.469921 -1.902017,-0.854405 -2.350604,-0.854405c-0.448553,0 -1.075436,-0.230318 -1.393055,-0.511736c-0.486651,-0.429993 -3.470606,-2.087735 -7.348916,-4.081691c-0.503359,-0.259107 -2.232638,-0.657526 -3.843019,-0.885058c-5.554647,-0.784777 -7.193829,-2.79452 -2.472242,-3.030407c1.016004,-0.051089 1.784994,-0.194095 1.710685,-0.317607c-0.075219,-0.124456 0.189468,-0.52009 0.586932,-0.880432c0.398441,-0.360343 0.723493,-0.793131 0.723493,-0.963062c0,-0.169044 0.733665,-1.303924 1.629885,-2.522388c4.180164,-5.67816 4.748536,-7.702769 3.33966,-11.897777c-2.183413,-6.501922 0.629668,-5.211012 9.044734,4.149499c0.763421,0.847915 1.562099,1.542595 1.774799,1.542595c0.213598,0 1.595526,1.235194 3.071245,2.745283l2.683998,2.744351l2.861363,0c2.684908,-0.000943 3.093555,-0.113295 6.635675,-1.830503l3.773336,-1.828628l3.828175,0c3.452045,0 3.969328,-0.090097 5.276946,-0.915723c0.796848,-0.503359 1.800793,-0.91478 2.230774,-0.91478c1.300218,0 4.370553,-1.895493 5.010428,-3.093533c1.157168,-2.165773 1.908507,-4.76896 1.908507,-6.609681c0,-1.024358 0.143016,-2.019029 0.317607,-2.209407c1.748794,-1.916861 1.941036,-6.938416 0.323188,-8.459666c-2.143451,-2.015312 -5.366099,-4.16157 -6.583643,-4.385386c-0.656582,-0.119796 -2.49453,-0.969586 -4.083543,-1.887151c-1.589957,-0.918497 -3.566283,-1.786825 -4.39191,-1.930784c-1.454351,-0.253538 -5.587142,-1.697705 -7.02108,-2.454602c-0.38728,-0.203392 -1.444133,-0.670539 -2.350559,-1.038293c-2.410036,-0.977929 -4.757811,-2.444384 -4.757811,-2.972827c0,-0.618507 0.797769,-0.581386 1.668904,0.077094c2.40815,1.821206 7.004338,0.520078 8.356555,-2.367301c0.3297,-0.704898 1.093121,-1.840699 1.696761,-2.525172c0.602742,-0.684463 1.577886,-2.084041 2.166705,-3.111206c0.588796,-1.026222 1.388418,-2.207554 1.777561,-2.623612c0.82191,-0.878568 2.272544,-3.293208 3.39258,-5.647495c0.431845,-0.906437 1.420003,-2.498247 2.19829,-3.539346c0.77731,-1.040145 1.847211,-2.852066 2.377485,-4.025964c0.530296,-1.173887 1.374517,-2.991388 1.876933,-4.038978c1.12839,-2.35523 1.219396,-2.133267 -2.087747,-5.06986a313.009259,313.009259 0 0 1 -4.85716,-4.41047c-1.161828,-1.085654 -2.284637,-1.97352 -2.495473,-1.97352c-0.210803,0 -2.266054,-1.152531 -4.567421,-2.562316c-2.302288,-1.408842 -4.433668,-2.561407 -4.736432,-2.561407c-0.303707,0 -1.234274,-0.494062 -2.067311,-1.097725c-1.511964,-1.095895 -3.637797,-1.42838 -5.090284,-0.797769m31.866043,18.656931c-0.301854,0.100315 -1.015095,0.570236 -1.583467,1.043896c-0.569281,0.472694 -1.326212,0.859985 -1.681884,0.859985c-0.617597,0 -1.858372,1.061513 -1.858372,1.589036c0,0.137436 -0.639874,1.194323 -1.419992,2.349627c-0.781072,1.155327 -1.906654,3.088929 -2.500111,4.296232c-1.390281,2.827004 -1.946583,3.753866 -2.878093,4.794045c-0.416979,0.465284 -1.376347,2.047796 -2.130471,3.516104c-0.755033,1.468285 -1.821206,3.164126 -2.370074,3.76871c-4.03434,4.442056 -4.241426,10.0645 -0.370549,10.0645c0.572998,0 2.118389,0.658435 3.434394,1.463637c1.315051,0.805213 2.631966,1.463648 2.926375,1.463648c0.294387,0 1.567646,0.579533 2.829777,1.287193c2.678418,1.501746 4.730862,2.500111 6.456425,3.139075c2.767572,1.025301 3.387033,4.814458 1.400488,8.56738c-0.212655,0.402124 -0.513566,2.131414 -0.667732,3.843019c-0.154178,1.710685 -0.389121,3.558839 -0.522863,4.106797c-0.722549,2.95795 2.422073,1.949345 6.831634,-2.190857c1.229614,-1.154383 2.653334,-2.373791 3.164126,-2.709049c0.99092,-0.651035 2.617122,-2.488029 2.638456,-2.983034c0.015787,-0.355705 1.625259,-2.513091 3.029486,-4.058493c0.550732,-0.607379 1.329906,-1.800759 1.730177,-2.653334c0.400293,-0.85162 1.185048,-2.017165 1.74227,-2.589253c1.249118,-1.27976 2.295787,-2.852066 2.295787,-3.448329c0,-0.245161 0.631532,-1.19804 1.404216,-2.117457c0.772707,-0.918497 1.859282,-2.493609 2.415583,-3.500316c0.555381,-1.006718 1.241707,-2.089599 1.523103,-2.40724c0.282316,-0.31855 0.512656,-1.146029 0.512656,-1.84071c0,-0.693748 0.224737,-1.587161 0.498722,-1.983738c0.563712,-0.815386 0.936125,-2.40815 1.208246,-5.170141l0.186673,-1.887151l-2.029246,-1.498939c-1.115376,-0.823762 -2.145315,-1.498939 -2.288354,-1.498939c-0.142073,0 -1.276043,-0.946366 -2.519592,-2.104477c-3.250506,-3.024826 -4.875754,-4.240506 -6.951419,-5.195225c-3.991639,-1.837936 -7.869017,-3.827221 -7.869017,-4.038057c0,-0.122592 -0.946354,-0.534024 -2.104466,-0.913871c-1.157168,-0.380756 -2.26885,-0.800542 -2.470389,-0.934261c-0.676086,-0.447666 -1.45992,-0.614824 -2.012505,-0.430015m28.10197,26.517594c-0.321335,0.251674 -0.937068,1.198028 -1.368004,2.104466c-1.674473,3.522605 -3.568114,6.977424 -4.260021,7.770555c-0.397498,0.45693 -1.540731,2.065458 -2.540028,3.575547c-0.999285,1.509157 -1.903847,2.827015 -2.008799,2.927296c-0.104941,0.101258 -0.496858,0.677041 -0.871135,1.281646a17.839681,17.839681 0 0 1 -1.486868,2.012505c-0.44395,0.503393 -1.109829,1.738554 -1.479458,2.745294c-0.369617,1.006718 -1.28625,2.735997 -2.03851,3.843019c-0.75135,1.107022 -1.670768,2.671928 -2.041317,3.477096c-0.371493,0.805202 -0.772707,1.546312 -0.892503,1.646626c-0.666823,0.561871 -3.573694,4.85067 -3.99905,5.901976c-0.477354,1.178525 -2.687704,4.435532 -4.066836,5.992994c-1.327122,1.498939 -4.759663,6.651462 -5.644722,8.472646c-0.503359,1.037372 -1.168318,2.095202 -1.478526,2.352457c-2.670064,2.215908 -2.018085,4.244211 2.047807,6.366328c1.107056,0.578578 2.506601,1.421856 3.111218,1.874148c0.603663,0.453213 2.003241,1.179479 3.10932,1.614098c1.107022,0.435573 2.177832,0.920361 2.379371,1.078255c1.384701,1.081938 4.069643,2.214965 5.249088,2.214965c1.044805,0 1.947515,0.39935 3.718597,1.646615c3.831858,2.698842 4.553453,2.534458 9.270415,-2.104466c2.097976,-2.063594 4.24978,-4.422552 4.78102,-5.242598c0.531217,-0.820046 1.449725,-1.848132 2.040374,-2.284637c0.590683,-0.436483 1.399579,-1.495222 1.798008,-2.352434c0.838618,-1.803555 3.207782,-4.426258 3.715767,-4.112344c0.190412,0.117023 0.252628,-0.028801 0.138379,-0.325984c-0.299035,-0.781038 0.389144,-1.875069 2.917112,-4.640788c2.527946,-2.765697 3.541177,-3.979534 4.407674,-5.510048c0.38728,-0.683542 1.045726,-1.574181 1.463648,-1.979089c0.417911,-0.40584 1.195255,-1.311357 1.725562,-2.013448a45.994571,45.994571 0 0 1 1.946571,-2.373791c0.539571,-0.603674 1.468308,-2.110046 2.062685,-3.348014c0.595286,-1.237058 1.325269,-2.451828 1.622452,-2.697933c0.297183,-0.247037 0.539593,-0.662185 0.539593,-0.922213c0,-0.260971 0.123513,-0.528444 0.274906,-0.59532c0.576726,-0.256311 3.507738,-6.606863 3.507738,-7.599647c0,-1.485016 -1.049454,-3.500328 -2.337557,-4.486622c-0.607391,-0.465284 -2.107273,-1.710685 -3.33317,-2.767572c-1.226818,-1.056876 -2.395158,-1.921521 -2.596675,-1.921521c-0.202482,0 -1.230557,-0.864611 -2.28558,-1.921498c-2.462012,-2.465752 -6.392344,-5.913126 -6.915207,-6.06544c-0.847915,-0.247957 -2.277204,-1.021585 -3.982319,-2.157385c-2.639399,-1.758057 -5.093091,-2.342216 -6.201023,-1.475741m-36.519844,40.533726c-0.30182,0.195049 -1.228704,0.357569 -2.058957,0.360343c-0.830264,0.003717 -2.441588,0.417922 -3.579275,0.920361c-1.514726,0.670539 -2.706276,0.915723 -4.449455,0.915723c-1.308561,0 -2.909679,0.22102 -3.557907,0.491289c-0.647319,0.270246 -1.815637,0.611107 -2.595754,0.756897c-0.780117,0.146733 -2.625476,0.831196 -4.100274,1.52125c-1.475741,0.690964 -2.833505,1.256528 -3.019246,1.256528c-0.184831,0 -1.097758,0.337145 -2.029246,0.748543c-3.151135,1.393998 -1.701421,3.659154 3.612679,5.645665c1.006741,0.37613 3.370325,1.726483 5.251884,3.000685c5.4395,3.682329 7.103744,3.14926 10.335678,-3.311802c1.976304,-3.949813 2.706276,-4.985332 3.516115,-4.985332c2.667268,0 5.953043,-4.658439 5.013201,-7.107449c-0.247048,-0.644545 -1.496166,-0.75784 -2.339443,-0.2127m66.245198,32.687043c0,1.043896 -3.04433,3.567193 -4.243279,3.517968c-0.38637,-0.015787 -0.494096,-0.111442 -0.240558,-0.21361c0.251685,-0.101224 0.45785,-0.417911 0.45785,-0.703034s0.153257,-0.518226 0.340861,-0.518226c0.188525,0 0.446689,-0.330621 0.574862,-0.733665c0.3882,-1.223124 3.110263,-2.404456 3.110263,-1.349432" fill-rule="evenodd" id="svg_1" transform="rotate(87 158.1184234619141,393.47573852539057) "/>
  <path stroke="null" d="m282.69499,64.426885c3.418508,0.12109 9.012624,0.12109 12.431185,0c3.418495,-0.122715 0.622315,-0.221644 -6.214754,-0.221644s-9.633249,0.09893 -6.216431,0.221644m-11.413283,0.646219c0.835455,0.160261 2.044282,0.155163 2.687068,-0.013655s-0.0409,-0.300051 -1.519154,-0.291546c-1.478253,0.006828 -2.005099,0.144928 -1.167914,0.305202m31.917649,0.006828c1.021296,0.153433 2.531945,0.150026 3.358855,-0.008518c0.82695,-0.160261 -0.008518,-0.286448 -1.856764,-0.281351c-1.848193,0.005137 -2.523387,0.134693 -1.502091,0.289869m-82.938168,3.498685c-9.444,0.465462 -7.142257,-2.086966 -16.790892,18.620292c-4.45173,9.558262 -8.291432,17.52916 -8.530099,17.713311c-0.238707,0.185841 -0.533673,0.789417 -0.654764,1.345251c-0.429646,1.955627 -20.50603,44.688148 -21.223868,45.17577c-0.400671,0.271063 -0.497858,0.497858 -0.2131,0.504685c0.282988,0.005098 -0.208042,1.445805 -1.089507,3.202001c-2.8968,5.762881 -3.094606,5.116675 4.670019,15.322834c3.919773,5.152531 7.425285,9.369014 7.78841,9.369014c0.598478,0 52.283955,-110.064774 52.283955,-111.338432c0,-0.564352 -3.39467,-0.547276 -16.240155,0.085274m28.043861,0.649573c-0.347779,0.562662 9.631572,5.739044 10.119194,5.249731c0.124511,-0.124497 -1.901071,-1.254918 -4.501188,-2.511475c-3.657215,-1.769786 -4.451769,-2.395522 -3.514017,-2.765514c1.053691,-0.416043 1.019619,-0.484215 -0.262558,-0.525169c-0.808157,-0.025581 -1.638527,0.223387 -1.841431,0.552427m-21.837678,26.110434c-40.926892,87.280825 -40.253389,85.785509 -39.095709,86.655103l1.785132,1.343507c0.383648,0.289856 1.140656,0.620638 1.679427,0.734848c0.540501,0.112532 4.762108,1.967606 9.380926,4.119323c105.82613,49.296718 137.465889,64.101264 137.743833,64.454246c0.185841,0.23357 0.785996,0.525116 1.336733,0.647883c0.549006,0.121037 11.356997,5.034861 24.016654,10.918846c12.659644,5.883971 23.184646,10.697188 23.389241,10.697188c0.202904,0 1.527658,-2.494412 2.941121,-5.542967c19.578566,-42.203932 39.924349,-85.5741 40.268774,-85.838388c0.240397,-0.185828 0.537081,-0.789404 0.661539,-1.34356c0.122767,-0.554104 2.163629,-5.215605 4.537004,-10.356171c2.373361,-5.142309 4.23863,-9.418432 4.14489,-9.503706c-0.093779,-0.086965 -9.091123,-4.305111 -19.992893,-9.375789c-10.90177,-5.070677 -28.741216,-13.389407 -39.643052,-18.487382c-10.90177,-5.097935 -26.77707,-12.499343 -35.276491,-16.448157c-8.49942,-3.950504 -15.605915,-7.379248 -15.790026,-7.621375c-0.184164,-0.242075 -0.789404,-0.535351 -1.34356,-0.651304c-0.554104,-0.117617 -20.429327,-9.263256 -44.1664,-20.325339c-23.737073,-11.063774 -43.429862,-20.11393 -43.762308,-20.11393c-0.33419,0 -6.100491,11.716794 -12.814833,26.037125m104.438302,-25.365351c0.739945,0.317167 1.798787,0.577994 2.352891,0.577994c0.63428,0 0.509783,-0.214816 -0.335867,-0.577994c-0.739985,-0.317114 -1.798787,-0.577994 -2.352931,-0.577994c-0.634241,0 -0.509783,0.213139 0.335907,0.577994m8.011811,2.397265c2.559203,0.893431 4.768883,1.508919 4.910404,1.367398c0.310299,-0.310299 -7.84644,-3.113359 -8.852403,-3.043418c-0.390423,0.027258 1.384474,0.780899 3.941999,1.67602m13.154094,4.993948c1.294102,0.70755 2.654672,1.287274 3.024665,1.287274c0.368276,0 -0.387002,-0.579724 -1.681104,-1.287274c-1.292412,-0.709267 -2.652982,-1.287261 -3.022988,-1.287261c-0.369992,0 0.385338,0.577994 1.679427,1.287261m-86.005476,1.456053c0,0.431376 0.187519,0.595057 0.419411,0.364895c0.230215,-0.231892 1.57886,0.172186 2.99569,0.895108c3.694761,1.884022 4.226705,1.568625 0.61554,-0.364842c-3.46971,-1.856764 -4.030641,-1.982952 -4.030641,-0.895161m90.037795,0.003407c0.676924,0.666689 13.437135,7.312766 13.437135,6.99733c0,-0.376781 -10.448233,-6.131157 -12.429442,-6.843844c-0.739998,-0.266018 -1.193535,-0.334177 -1.007693,-0.153486m-133.041378,6.369917c0,0.240397 -3.476524,4.736488 -7.72708,9.989599c-8.731313,10.794388 -8.702325,10.726177 -5.039999,11.824189c3.536178,1.058842 3.686203,0.700762 -4.030641,9.56509c-7.699769,8.843845 -7.450866,8.352802 -4.359667,8.625608l2.359719,0.208002l-11.935044,12.864225c-6.564263,7.075789 -12.049254,12.756856 -12.189044,12.623894c-0.139843,-0.131325 3.111629,-4.94795 7.224072,-10.704016c8.448325,-11.824242 8.565955,-12.10554 4.789366,-11.501978c-2.608661,0.416043 -3.889108,-0.780899 -2.04942,-1.916404c0.351253,-0.21825 4.054532,-4.090295 8.231765,-8.606868l7.592387,-8.213025l-3.024665,-0.335854c-4.221607,-0.468883 -4.083507,-0.823542 5.338333,-13.667297l8.209604,-11.193369l3.306029,0c1.817527,0 3.304285,0.197807 3.304285,0.438204m59.306813,0.044321c1.021296,0.153433 2.533622,0.150026 3.358841,-0.010248c0.82695,-0.15853 -0.008505,-0.284718 -1.856711,-0.281298c-1.848246,0.005098 -2.52344,0.13637 -1.502144,0.291546m14.782386,0c1.021296,0.153433 2.533635,0.150026 3.358855,-0.010248c0.82695,-0.15853 -0.008518,-0.284718 -1.856764,-0.281298c-1.848193,0.005098 -2.523387,0.13637 -1.502091,0.291546m74.070485,1.880601c0.738255,0.601885 1.94707,1.391288 2.687068,1.754466l1.34356,0.659848l-1.34356,-1.094645c-0.739998,-0.601845 -1.948813,-1.391249 -2.687068,-1.754414l-1.345251,-0.659861l1.345251,1.094605m8.3988,5.215605c0,0.192669 1.889159,1.754466 4.19946,3.466289c11.085934,8.223207 24.998726,22.236659 32.971341,33.210061c1.781725,2.451768 3.582189,4.762068 3.999923,5.130331c0.417721,0.369992 0.358067,0.143251 -0.131286,-0.502955c-0.4893,-0.647896 -0.642785,-1.176472 -0.342682,-1.176472c0.301781,0 0.086951,-0.378497 -0.47398,-0.840552c-0.560971,-0.460364 -3.094606,-3.536178 -5.628241,-6.830241c-6.219838,-8.090244 -15.650236,-17.800209 -23.218732,-23.909259c-3.433894,-2.772342 -6.944451,-5.706648 -7.802066,-6.521619c-0.857628,-0.813307 -1.55839,-1.306067 -1.55839,-1.092928s-0.453537,0.011925 -1.007641,-0.448399c-0.554157,-0.460364 -1.007707,-0.678601 -1.007707,-0.484255m-189.211007,5.93685c-4.688759,3.645303 -25.024347,23.440389 -24.079767,23.440389c0.201214,0 -1.007654,1.684512 -2.687068,3.745857c-1.67775,2.059668 -4.782552,6.368187 -6.898453,9.573608c-2.115901,3.207086 -4.110765,6.015244 -4.433029,6.240308c-0.323942,0.226755 -0.557511,0.606983 -0.521708,0.845703c0.115953,0.748503 -3.450943,7.454287 -4.23863,7.972575c-0.414313,0.271116 -0.545586,0.497858 -0.293276,0.502955c0.250646,0.006828 -0.859292,2.826911 -2.467154,6.26931c-2.158532,-3.028085 16.439652,-34.379652 44.413678,-56.846474c5.160996,-4.144904 5.785042,-4.462017 5.237766,-2.661553c-0.197807,0.646206 0.1381,0.317167 0.745083,-0.73144c1.764662,-3.050232 0.871231,-2.741624 -4.777441,1.648762m120.359601,-2.115901l-1.909629,1.994811l9.343433,4.446685c5.138889,2.44494 10.477274,4.905266 11.863425,5.469658c1.386138,0.562609 2.519979,1.24294 2.519979,1.510596c0,0.267708 0.37682,0.492773 0.838862,0.499601c0.462055,0.006828 9.014354,3.836229 19.003953,8.511346c20.538492,9.609398 19.583664,9.322949 20.192377,6.083468c0.757008,-4.035739 -10.238554,-14.257217 -19.421726,-18.056006c-2.521657,-1.041726 -5.005873,-2.315398 -5.520754,-2.830279c-0.513243,-0.51492 -1.113398,-0.888333 -1.331635,-0.830357c-0.218237,0.057963 -3.870368,-1.466288 -8.114095,-3.38952c-12.119142,-5.488411 -24.052509,-6.970071 -27.46419,-3.410003m-118.489194,5.766302c-2.023852,4.167011 -1.798787,4.750143 0.288126,0.741675c0.930937,-1.79196 1.57882,-3.37251 1.43903,-3.512287c-0.141521,-0.141521 -0.917269,1.106517 -1.727155,2.770612m-7.068948,15.198376c-2.468844,5.229261 -4.385301,9.612832 -4.259113,9.740683c0.127865,0.126188 2.252324,-4.047638 4.722885,-9.276899c2.468844,-5.229261 4.385248,-9.612832 4.257383,-9.740697c-0.127865,-0.127865 -2.252324,4.045974 -4.721155,9.276912m192.392538,-0.574574c0,0.11594 0.983803,1.098012 2.184113,2.184113l2.184113,1.974381l-1.972703,-2.18406c-1.839688,-2.03583 -2.395522,-2.492735 -2.395522,-1.974433m7.391213,6.719426c0,0.115953 0.983803,1.098026 2.184113,2.184113l2.184113,1.972703l-1.972703,-2.182435c-1.839688,-2.035764 -2.395522,-2.492721 -2.395522,-1.974381m-46.186831,6.676795c5.667412,14.325429 4.893341,29.155542 -2.305163,44.105016l-3.360571,6.981984l3.328176,4.777401c9.005796,12.930772 12.255578,27.951865 9.251331,42.778572c-1.381053,6.813165 -0.63255,6.109036 -5.638423,5.30257c-15.805412,-2.545613 -31.194767,-12.782424 -38.689967,-25.740455l-2.635919,-4.555744l-3.411733,0.487623c-16.582837,2.373361 -33.06681,-2.796246 -45.339399,-14.219724l-3.693031,-3.437301l2.487571,-3.38956c8.342567,-11.363825 24.05247,-19.239253 40.406887,-20.255411l6.680203,-0.414313l1.604388,-3.996555c5.826008,-14.516407 19.183006,-26.688428 34.756473,-31.673831c4.491006,-1.435609 4.756971,-1.304337 6.559179,3.249729m-162.676078,6.654635c-2.284719,4.860945 -4.047691,8.942735 -3.919773,9.0706c0.127865,0.127865 2.100568,-3.744193 4.383558,-8.605138c2.28468,-4.860985 4.047651,-8.942775 3.919786,-9.07064c-0.127878,-0.127865 -2.100582,3.744193 -4.383571,8.605178m149.900481,-0.697354c-8.584708,4.281274 -16.84204,12.499396 -21.189795,21.087498c-3.171283,6.26585 -3.263385,6.018625 3.024665,8.093625c7.068948,2.332448 10.564226,4.092012 15.817337,7.960649c5.311075,3.912998 4.898491,4.02553 7.744142,-2.110764c5.120096,-11.038193 6.344296,-22.229831 3.604336,-32.925343c-1.496993,-5.83792 -1.508919,-5.841328 -9.000685,-2.105666m71.037249,0.937765c2.235261,2.705808 5.396349,5.861811 5.396349,5.387791c0,-0.209679 1.237816,0.248955 2.751872,1.021296c1.514016,0.772394 2.87806,1.278756 3.031493,1.127001c0.151769,-0.153433 -1.011048,-0.849057 -2.58477,-1.546412c-1.575453,-0.697354 -4.526808,-2.78259 -6.559165,-4.634203c-2.032357,-1.851666 -2.947948,-2.460326 -2.035777,-1.355473m26.340596,1.672586c0.567759,0.92411 2.013617,3.418561 3.210506,5.542967c1.198632,2.124459 2.320549,3.86354 2.496142,3.86354c0.555834,0 -4.090282,-8.301653 -5.44067,-9.72193c-1.294102,-1.358893 -1.294102,-1.358893 -0.265978,0.315437m-8.85066,9.07064c1.664081,0.889958 3.326446,1.619721 3.696438,1.619721c0.370006,0 -0.688836,-0.729763 -2.351201,-1.619721c-1.664095,-0.890024 -3.326446,-1.619774 -3.696452,-1.619774c-0.369992,0 0.688797,0.72975 2.351214,1.619774m-244.453159,2.049367c-2.023852,4.165321 -1.797057,4.748466 0.288178,0.739998c0.930924,-1.790282 1.57882,-3.37078 1.438977,-3.5123c-0.141468,-0.13983 -0.917269,1.106531 -1.727155,2.772302m260.374457,1.302647c0.615488,1.287274 1.237856,2.223349 1.382784,2.076678c0.308569,-0.306879 -1.732306,-4.421051 -2.19094,-4.421051c-0.170496,0 0.194346,1.055382 0.808157,2.344386m-3.825994,2.359706c2.032357,1.074175 3.998233,1.952233 4.368172,1.952233c0.368315,0 -0.992308,-0.878059 -3.024665,-1.952233c-2.032357,-1.074122 -3.998233,-1.95222 -4.366495,-1.95222c-0.369992,0 0.990578,0.878098 3.022988,1.95222m-259.924328,3.723749c-1.127053,2.470521 -0.912184,2.999097 0.305149,0.751871c0.569476,-1.048554 0.908816,-2.032357 0.755318,-2.185803c-0.153433,-0.155163 -0.63082,0.491043 -1.060466,1.433932m-3.02131,7.13885c-0.60866,1.548142 -0.995728,2.924058 -0.861035,3.058751c0.134693,0.134693 0.748503,-1.014468 1.364044,-2.555795c0.617178,-1.539637 1.004233,-2.915553 0.861035,-3.05706c-0.141521,-0.143251 -0.755331,1.005963 -1.364044,2.554105m275.796221,3.594101c-0.876368,2.027259 -1.809022,3.684526 -2.07158,3.684526c-0.260881,0 -0.477388,0.378511 -0.477388,0.840552s-3.868677,9.154197 -8.59493,19.317712c-24.998779,53.751907 -31.479498,67.559035 -31.861416,67.864236c-0.230149,0.184164 -0.518288,0.789404 -0.639378,1.34356c-0.122715,0.554104 -1.696437,4.172149 -3.496955,8.037379c-1.802195,3.866947 -3.213927,7.091109 -3.137197,7.166148c0.075039,0.074986 5.616263,-0.034139 12.313542,-0.24045l12.175442,-0.376767l1.514016,-3.094619c0.833777,-1.699858 7.708326,-16.397009 15.278553,-32.657634c7.570187,-16.260586 13.957166,-29.714784 14.194156,-29.900625c0.236977,-0.184164 0.526846,-0.789404 0.644476,-1.343507c0.11936,-0.554157 1.572032,-3.880616 3.229299,-7.391226c1.657214,-3.51061 3.045095,-6.533545 3.082641,-6.719426c0.037493,-0.184111 1.22247,-2.721154 2.632512,-5.638437l2.5643,-5.30084l-4.477297,-5.785094c-12.419259,-16.045756 -10.727907,-14.758482 -12.872796,-9.805488m-159.665002,2.308623c-9.945331,2.615449 -25.198263,12.081596 -25.198263,15.638257c0,5.263346 23.810382,13.957166 35.349853,12.908559c6.557435,-0.595004 6.415915,-0.390423 4.840462,-7.017747c-1.096282,-4.613773 -1.306014,-7.346892 -1.094605,-14.27428l0.260881,-8.565955l-4.727983,0.037493c-2.600116,0.018753 -6.843884,0.593327 -9.430345,1.273672m20.241795,0.388746c-1.544734,4.025478 0.225012,23.087394 2.364803,25.476154c1.543057,1.723735 22.074669,-11.701474 22.074669,-14.434593c0,-3.541289 -23.281806,-14.059463 -24.439472,-11.04156m139.329415,16.610095c2.579686,2.835416 2.567774,3.045148 -1.091185,17.817285c-3.636798,14.680088 -3.425336,14.299848 -6.468807,11.628113l-2.357976,-2.07158l-0.387055,2.187533c-0.211422,1.20204 -0.869554,5.965838 -1.462881,10.586386c-0.591637,4.618857 -1.300917,9.305887 -1.573709,10.414147l-0.49618,2.015294l-1.643611,-2.511422c-2.28983,-3.498698 -2.085236,-3.853358 -5.604351,9.735546c-2.821774,10.896672 -5.077505,17.217131 -4.127841,11.568459c0.184164,-1.096335 1.106583,-8.344297 2.047743,-16.103785c0.94285,-7.761165 1.875504,-14.847177 2.073271,-15.747382l0.359757,-1.635106l1.57713,1.970973c2.102246,2.632512 2.061345,2.733119 3.752738,-8.787559c1.730576,-11.778191 1.616314,-11.565052 4.920599,-9.319542c3.312856,2.250594 3.225892,2.412532 5.392942,-10.15674c2.743367,-15.907656 2.228433,-14.734644 5.089417,-11.590619m-115.878843,3.970974c-3.756105,3.307706 -7.268392,5.628202 -11.757655,7.767993c-3.520845,1.679427 -6.53019,3.166185 -6.687044,3.304285c-0.670096,0.593327 6.455151,9.92144 10.301628,13.484876c5.491818,5.08774 10.405642,7.948724 17.928088,10.438038c7.5174,2.489314 7.307668,2.709228 7.321311,-7.614547c0.015346,-11.670756 -2.179015,-19.010767 -8.554029,-28.611673c-2.883144,-4.342657 -2.09032,-4.456867 -8.552299,1.231028m123.382601,23.682464c0.577994,-0.358027 0.693934,3.150853 0.456904,13.90261c-0.211409,9.563347 -0.129555,12.692039 0.240437,9.341703c0.891701,-8.049291 0.414327,-26.903218 -0.632603,-25.073766m-3.732201,7.972627c-2.467154,5.031454 -2.240412,5.626511 0.281298,0.739945c1.116766,-2.161952 1.916417,-4.042554 1.778304,-4.180667c-0.13637,-0.1381 -1.063887,1.411732 -2.059602,3.440721m-182.725217,3.839649c-1.556647,3.785093 -1.635093,3.599252 2.015294,4.768896c1.754466,0.562662 12.098725,3.912945 22.986892,7.445716c29.689216,9.633302 29.636337,9.084295 -0.485932,-4.96665c-24.681652,-11.513903 -22.97152,-11.009204 -24.516254,-7.247962m178.907675,4.504608c-0.463732,1.120173 -1.159409,2.037494 -1.546412,2.037494c-0.387068,0 -0.513203,0.189249 -0.283041,0.419411c0.230162,0.230215 -0.172186,1.57886 -0.896851,2.99742c-0.722922,1.416856 -1.299187,2.816663 -1.280433,3.108209c0.01874,0.291546 1.246361,-1.844838 2.729711,-4.746736c1.483338,-2.901897 2.567708,-5.406544 2.409177,-5.565128c-0.158583,-0.158583 -0.668366,0.629143 -1.132151,1.749329m-190.835878,21.520551c0,0.477388 24.35429,8.721078 42.892768,14.518098l4.927479,1.541314l4.310209,-9.094478c4.634203,-9.776499 4.743315,-10.091883 3.471387,-10.108959c-0.462055,-0.005098 -11.16265,-3.382732 -23.777933,-7.502015c-12.617066,-4.121 -23.077225,-7.49351 -23.246043,-7.49351c-0.168779,0 -2.16878,3.953912 -4.441534,8.785922m180.048318,3.074083c1.115088,-2.161899 1.91647,-4.042554 1.778357,-4.180654c-0.1381,-0.1381 -1.065617,1.411772 -2.061345,3.440708m14.107192,2.823504c0.168779,-0.647936 0.168779,-1.704995 0,-2.352944c-0.168818,-0.646206 -0.306932,-0.117617 -0.306932,1.176472m-18.836851,9.104726c-1.181557,2.397199 -2.132964,4.579634 -2.115901,4.85071c0.018753,0.269386 1.096282,-1.580498 2.395535,-4.112455c1.299187,-2.531945 2.252324,-4.714327 2.115901,-4.85075c-0.134693,-0.134693 -1.212288,1.71523 -2.395535,4.112495m-219.776644,105.30779c0.226795,0.330769 0.605305,0.572897 0.842282,0.538824c0.23699,-0.032409 4.134655,1.795367 8.659734,4.064701c4.526769,2.269347 11.554817,5.398039 15.619531,6.953009c4.066444,1.554983 7.996465,3.068986 8.73645,3.362275c0.738268,0.294953 1.797057,0.603562 2.351161,0.687106c0.554157,0.083544 3.534501,0.811564 6.622239,1.618044c3.087778,0.808157 5.919787,1.367398 6.294877,1.241263c0.373413,-0.124497 -1.699858,-0.784306 -4.606906,-1.466328m-10.252196,-112.262528c-4.315346,9.314445 -4.484178,10.606817 -1.418547,10.821646c1.838011,0.129595 19.14546,5.887379 19.375675,6.444943c0.124445,0.301794 0.446656,0.412597 0.716094,0.245495c0.271063,-0.167088 6.02886,1.505511 12.797704,3.715205c6.767167,2.21141 12.357876,3.933428 12.420989,3.827724c0.063061,-0.105705 2.011874,-4.250555 4.332409,-9.2087c4.421064,-9.455965 4.470522,-9.979404 0.995728,-10.542012c-0.419464,-0.066534 -10.596621,-3.329919 -22.61517,-7.248015c-12.018588,-3.919786 -21.975779,-7.126872 -22.127534,-7.126872c-0.151756,0 -2.16705,4.081777 -4.47735,9.070587m201.279014,-4.253963c-0.63255,2.632512 -1.028071,4.906996 -0.878045,5.055331c0.148348,0.150039 0.794554,-1.873813 1.4373,-4.49609c0.642799,-2.622316 1.038359,-4.896801 0.878098,-5.057075c-0.158583,-0.15853 -0.80648,1.865322 -1.437339,4.497833m-20.806147,4.961552c-1.367398,2.765527 -2.472251,5.248001 -2.453498,5.519077c0.01874,0.271116 1.246361,-1.880601 2.729711,-4.782499c1.483351,-2.90195 2.588191,-5.386114 2.453498,-5.520807c-0.132963,-0.133016 -1.362313,2.018701 -2.729711,4.784229m18.074746,4.767166c-18.743112,41.4299 -10.802893,28.229756 -6.472201,18.55554c3.583906,-8.00324 8.238593,-20.874346 7.909501,-21.863246c-0.11421,-0.344372 -0.762106,1.144063 -1.4373,3.307706m-208.627596,15.865065c-3.921503,8.175518 -3.976072,8.305074 -4.253963,10.122601c-0.158583,1.036629 1.921502,1.895987 13.58716,5.618006c7.577014,2.417682 13.877029,4.664869 13.999757,4.995638c0.124497,0.330769 0.455267,0.458634 0.734848,0.286448c0.279621,-0.172186 4.666599,1.055382 9.750932,2.728021c5.08432,1.67429 9.322949,2.947948 9.418419,2.830279c0.458687,-0.560932 7.626526,-15.846272 8.020356,-17.099461c0.433067,-1.387881 -0.342695,-2.131234 -2.763784,-2.63934c-0.450129,-0.093779 -4.078369,-1.237856 -8.062999,-2.54218c-12.291328,-4.022083 -36.551839,-11.865103 -36.683125,-11.858275c-0.068211,0.003407 -1.754466,3.404905 -3.747587,7.558248m183.521435,-6.724524c-4.855861,10.698918 1.336733,-0.840552 0.96501,-0.840552c-0.158544,0 -0.59334,0.378497 -0.96501,0.840552m-191.26217,23.685924c-0.231892,0.922419 -0.734848,1.679427 -1.120186,1.679427c-0.383595,0 -0.526846,0.277891 -0.317114,0.617218c0.211409,0.339287 0.001677,1.028084 -0.463785,1.527672c-0.465462,0.501278 -0.936022,1.357163 -1.045134,1.902762c-0.110855,0.545599 -1.244683,3.215644 -2.520032,5.931713c-2.579633,5.493548 -2.685338,5.916367 -1.47993,5.93512c0.462042,0.006828 11.099576,3.384422 23.638196,7.503745c12.540297,4.11927 23.000495,7.490037 23.24772,7.490037c0.247225,0 2.347741,-4.115849 4.669967,-9.145626c4.719478,-10.228306 4.791096,-9.611088 -1.329918,-11.401371c-2.032357,-0.595004 -12.347627,-3.924871 -22.920305,-7.401395c-22.214499,-7.302531 -19.827482,-6.758609 -20.359478,-4.639301m-41.963534,7.711694c1.244683,1.65386 4.982035,5.759527 8.308494,9.123479c5.655486,5.718613 5.71856,5.762934 0.98721,0.687159a532.682229,532.682229 0 0 1 -8.306804,-9.123519c-2.612029,-2.973516 -2.806428,-3.108209 -0.988901,-0.687119m28.800922,21.125004c0,2.129543 23.987665,15.63658 30.424063,17.130166c0.081867,0.018753 3.307706,1.098026 7.167838,2.398942c3.861849,1.299239 7.121827,2.363126 7.246272,2.363126c0.313707,0 6.228356,-12.806262 6.228356,-13.486554c0,-0.305202 -9.449098,-3.62482 -20.997073,-7.377557c-11.547989,-3.754428 -21.327895,-7.092799 -21.731974,-7.420161c-0.402401,-0.327349 -0.890024,-0.439881 -1.082693,-0.247225c-0.190979,0.190939 -1.145741,0.046011 -2.119308,-0.323942c-1.670922,-0.635971 -1.865269,-0.485945 -3.452634,2.646167m-2.018715,9.411605c1.664042,1.144063 3.024678,1.928382 3.024678,1.744218c0,-0.184151 -1.360636,-1.271928 -3.024678,-2.416005c-1.662404,-1.144063 -3.022988,-1.93006 -3.022988,-1.744218m75.199176,26.36108c-0.153446,-0.133016 -3.302608,-0.402401 -6.99906,-0.600168c-4.490953,-0.238707 -5.716883,-0.173916 -3.694721,0.194346m22.509465,0.412636c-25.390932,19.344957 -25.919455,19.206857 -27.213597,19.206857m-231.360396,94.349773" fill-rule="evenodd" id="svg_2" transform="rotate(6 246.45257568359366,269.2199401855469) "/>
 </g>
</svg>