<svg width="500" height="500" xmlns="http://www.w3.org/2000/svg">

 <g>
  <title>background</title>
  <rect fill="none" id="canvas_background" height="502" width="502" y="-1" x="-1"/>
 </g>
 <g>
  <title>Layer 1</title>
  <path transform="rotate(87 149.37841796875003,296.2262878417969) " stroke="null" id="svg_1" fill-rule="evenodd" d="m122.768305,193.238029c-0.296923,0.623648 -0.644309,1.133149 -0.771678,1.133149c-0.26964,0 -2.698869,4.669036 -3.052877,5.867525c-0.54919,1.860171 -1.573975,3.56401 -2.556599,4.248031c-3.752592,2.615316 -4.770753,6.496117 -2.065286,7.871599c0.739428,0.376348 2.168684,1.230739 3.17528,1.897388c1.006595,0.667488 2.348987,1.310981 2.983385,1.430072c1.071936,0.200988 2.23484,0.741923 5.150414,2.395323c0.640181,0.362263 1.913105,0.762583 2.829549,0.888321c1.547507,0.213394 4.319155,1.626093 4.319155,2.202589c0,1.033063 -5.667353,-0.172049 -8.185894,-1.74024c-2.322544,-1.446629 -3.653346,-2.074405 -5.830308,-2.749308c-0.985912,-0.306041 -2.012352,-0.737796 -2.281991,-0.959444c-1.047125,-0.863509 -3.862613,-2.023941 -6.279412,-2.587217c-1.392039,-0.324229 -2.611188,-0.718743 -2.707963,-0.875915c-1.161272,-1.879175 -9.591994,4.793934 -9.591994,7.592049c0,0.267168 -0.554997,0.987567 -1.233235,1.600465c-1.689778,1.525191 -2.681472,2.937074 -4.305933,6.123919c-0.760928,1.494597 -1.781585,3.178591 -2.266274,3.742682c-0.485506,0.564067 -1.137277,1.675716 -1.448261,2.469734c-0.311008,0.794042 -1.112465,1.973479 -1.779953,2.621123c-0.667465,0.648459 -1.482167,1.759269 -1.809708,2.468102c-0.327542,0.709648 -1.223301,1.903987 -1.991692,2.655004c-0.768366,0.751018 -1.734433,2.04213 -2.147999,2.869262c-0.412726,0.827108 -1.4276,2.343181 -2.253868,3.369645c-2.050409,2.544192 -2.602094,3.767469 -2.602094,5.773222c0,1.607064 -0.095935,1.806396 -1.667462,3.454013c-1.006571,1.054564 -2.109942,2.700501 -2.779902,4.148785c-0.611242,1.320052 -1.693929,3.214153 -2.406073,4.209159c-1.640154,2.28943 -1.716245,3.63019 -0.316767,5.561484c0.537623,0.742739 0.977633,1.480535 0.977633,1.639338c0,0.158804 0.215049,0.467316 0.478066,0.685677c0.263857,0.218337 1.676556,2.199279 3.140534,4.401052c2.510286,3.775748 3.828706,5.060238 5.193438,5.060238c0.720399,0 1.58638,1.359789 1.801429,2.828733c0.237389,1.616999 2.167028,4.016449 3.230709,4.016449c0.595502,0 1.80143,1.712118 1.80143,2.557414c0,0.364759 0.15386,0.758456 0.340787,0.87426c0.187742,0.115779 1.068624,1.6964 1.957761,3.511915c0.889137,1.815491 1.913921,3.642571 2.277024,4.060265c0.837043,0.961939 3.573129,5.345618 3.573129,5.724438c0,1.185244 3.152939,3.481297 4.780687,3.481297c2.011536,0 2.803898,0.660866 2.597127,2.167028c-0.198516,1.450756 0.678239,4.567294 1.592187,5.655787c0.224984,0.2688 1.019818,1.492917 1.765868,2.719529c0.745235,1.227428 1.849421,2.76752 2.45404,3.422579c1.458195,1.581437 2.456513,2.867583 2.456513,3.167841c0,0.133992 0.366414,0.72455 0.814702,1.312613c0.448311,0.587247 0.814702,1.164583 0.814702,1.283674c0,0.118275 0.806447,1.320076 1.792359,2.669906c0.986751,1.349854 1.793175,2.634344 1.793175,2.852705c0,0.590558 0.857702,2.202589 1.590531,2.988353c2.475541,2.65834 3.479641,7.104887 2.271241,10.060966c-0.292795,0.718767 -0.631903,2.331615 -0.751833,3.585534c-0.119931,1.253895 -0.487185,3.233157 -0.816358,4.398556c-0.33582,1.188555 -0.674927,3.764182 -0.774173,5.867526c-0.110021,2.34402 -0.384604,4.297654 -0.731989,5.214914c-0.373038,0.984279 -0.631087,3.021443 -0.785764,6.19341c-0.134831,2.786525 -0.442504,5.395242 -0.747706,6.356342c-0.635214,1.995819 -1.210055,5.187631 -1.210055,6.717789c0,0.62528 -0.134832,1.277051 -0.300258,1.446605c-0.274583,0.282885 -0.600469,1.600465 -1.286146,5.199221c-0.137303,0.717112 -0.42266,1.624437 -0.635214,2.015663c-0.263041,0.485505 -0.385443,2.932923 -0.385443,7.691295c0,7.903032 -0.163771,7.402626 2.833676,8.656521l1.693089,0.708018l39.214114,-0.083529l39.214113,-0.082714l0.180304,-3.585533c0.111652,-2.233185 0.358136,-3.892367 0.651771,-4.400212c0.394514,-0.68155 0.48385,-3.886608 0.545878,-19.557026c0.043841,-11.247866 0.206795,-19.36842 0.406944,-20.307204c0.183615,-0.860197 0.334164,-4.244719 0.334164,-7.520085c0,-6.601986 0.567378,-8.745018 2.823742,-10.664746c2.120716,-1.804765 4.604511,-5.224848 4.815434,-6.630109c0.155492,-1.036374 0.536808,-1.698056 1.530974,-2.6575c4.527605,-4.368801 7.113166,-8.324037 7.123916,-10.90132c0.001655,-0.453254 0.216705,-1.127342 0.47641,-1.498723c0.260546,-0.371382 0.721239,-1.687306 1.025601,-2.924668c0.303569,-1.237339 0.667488,-2.398611 0.807263,-2.58141c0.140615,-0.18196 0.494624,-1.722028 0.787419,-3.422579c0.291956,-1.699712 0.742739,-3.719502 1.000789,-4.487077c0.258074,-0.768366 0.469812,-1.907298 0.469812,-2.531762c0,-0.623649 0.239021,-1.995003 0.531001,-3.047071c0.492128,-1.768363 0.492128,-1.992531 0,-2.978442c-0.755985,-1.516073 -0.65837,-3.237308 0.283701,-5.008959c0.448288,-0.842825 0.816358,-1.781609 0.818829,-2.085971c0.001656,-0.304385 0.387915,-1.21339 0.856887,-2.019814c0.645148,-1.107498 0.893288,-2.066126 1.014874,-3.911395c0.088496,-1.344888 0.272951,-2.591344 0.409415,-2.770832c0.601308,-0.788235 0.709673,-3.117378 0.181959,-3.922146c-0.697243,-1.064497 -0.883354,-1.031407 -3.001574,0.533473c-1.051252,0.775829 -1.931294,1.215862 -2.099216,1.04878c-0.5161,-0.51694 0.949534,-2.907296 2.186056,-3.56401c0.664177,-0.353169 1.52272,-1.239834 2.014008,-2.081843c0.470627,-0.806424 2.76752,-3.454829 5.104101,-5.884874c7.393532,-7.689639 8.137111,-9.866601 4.61363,-13.518291c-0.917283,-0.951166 -1.909794,-2.045442 -2.203429,-2.431701c-0.294451,-0.385443 -1.406916,-1.607904 -2.471414,-2.716242c-1.064473,-1.107497 -2.767496,-3.143845 -3.784842,-4.525109c-3.79396,-5.150414 -5.531705,-5.467205 -8.252914,-1.504507c-0.689804,1.0041 -2.353954,3.103317 -3.698817,4.665725c-1.344072,1.562408 -2.811361,3.398583 -3.258833,4.080949c-0.760112,1.157145 -4.080949,4.820401 -7.839348,8.646611c-0.887481,0.904039 -1.613687,1.875889 -1.613687,2.15875c0,0.46734 -1.05869,1.814699 -4.826184,6.13966c-0.70221,0.806424 -1.648433,2.052881 -2.101687,2.769968c-0.453255,0.717112 -1.363076,1.817171 -2.021446,2.444946c-0.65921,0.627776 -1.510314,1.654216 -1.891606,2.281992c-0.381291,0.62696 -1.398637,1.862666 -2.260491,2.744364c-2.500352,2.55907 -2.351483,2.889923 4.196753,9.364539c5.82534,5.759161 7.900561,6.940277 9.271915,5.275312c0.24646,-0.298603 1.181093,-1.119928 2.077692,-1.825449c0.89576,-0.705522 2.143032,-1.751807 2.769992,-2.325832c0.627776,-0.574001 1.649249,-1.32917 2.270402,-1.678211c0.621176,-0.349858 1.713773,-1.185244 2.429229,-1.857676c1.483006,-1.39535 3.124,-1.703023 3.124,-0.585591c0,0.349857 -0.392882,0.899887 -0.872604,1.222461c-0.479722,0.321759 -1.487133,1.186084 -2.238151,1.920544c-0.751017,0.734485 -1.934605,1.756798 -2.631033,2.272081a25.960495,25.960495 0 0 0 -2.379606,2.044602c-0.612058,0.609587 -1.595498,1.310142 -2.186056,1.556625c-1.224957,0.511997 -2.335766,1.581437 -2.754275,2.651718c-0.484689,1.239834 -2.099192,1.005779 -2.76668,-0.402792c-0.296923,-0.624464 -1.073592,-1.459035 -1.726995,-1.854388c-1.198489,-0.725366 -3.302649,-2.597943 -5.613603,-4.995738a579.122514,579.122514 0 0 0 -1.511969,-1.563248c-0.325862,-0.330828 -3.397768,-2.844426 -6.896437,-5.642541c-2.120716,-1.695584 -3.175279,-2.30102 -4.726098,-2.714562c-1.098403,-0.29282 -2.316737,-0.710489 -2.708779,-0.92885c-0.391226,-0.217545 -1.371354,-0.396193 -2.178617,-0.396193c-0.806424,0 -2.319209,-0.34573 -3.362206,-0.769206c-2.702996,-1.097587 -7.160294,-2.412696 -9.066777,-2.674057c-0.896575,-0.123242 -1.776617,-0.333324 -1.956105,-0.466477c-0.608771,-0.452439 -3.573944,-0.942095 -6.984957,-1.154649c-1.869266,-0.115803 -3.75756,-0.347386 -4.195097,-0.513628c-2.129811,-0.809759 -2.156278,1.85686 -0.038873,3.974241c0.711304,0.711328 1.754302,2.060343 2.318393,2.997447c0.564091,0.936288 1.846109,2.656684 2.850209,3.822083c1.004124,1.1654 2.22577,2.738558 2.715402,3.496198c0.48884,0.75764 1.267141,1.624437 1.72949,1.927983c0.462349,0.30273 1.195178,1.076087 1.628589,1.71874c0.43341,0.642677 1.925511,2.35561 3.31587,3.806366c1.390383,1.450757 2.674873,2.844427 2.854361,3.096694c1.318419,1.855204 2.11906,3.310087 2.11906,3.851862c0,0.350673 0.639366,1.930454 1.420138,3.511075c0.781636,1.581437 1.603777,3.387834 1.82792,4.015609a34.093479,34.093479 0 0 0 0.849448,2.118245c0.243173,0.538439 0.66996,1.813835 0.947039,2.835332c0.277918,1.022289 0.650115,1.947827 0.826292,2.057008c0.176992,0.10918 0.321734,0.562435 0.321734,1.007435c0,0.444977 0.591374,2.013168 1.314269,3.485424c1.335793,2.720369 2.271265,5.681415 2.271265,7.189257c0,1.111625 2.912238,4.223219 5.052799,5.398529c2.36636,1.299391 2.251397,2.004097 -0.651747,3.994949c-1.255575,0.860197 -2.531787,1.566535 -2.836988,1.569846c-0.905694,0.009095 -2.173651,0.707178 -2.674873,1.472257c-0.663361,1.013218 -0.870948,36.993335 -0.217545,37.78073c1.030591,1.24149 0.822141,8.480369 -0.238205,8.276886c-0.77499,-0.14887 -0.987568,-1.969352 -1.016506,-8.675551c-0.016557,-3.790649 -0.154677,-5.878275 -0.421845,-6.356341c-0.566562,-1.01569 -0.870108,-4.264565 -1.150498,-12.314835c-0.165426,-4.764155 -0.373853,-7.195855 -0.645148,-7.522557c-0.386259,-0.464029 -0.865981,-3.006565 -1.282859,-6.788096c-0.109156,-0.985912 -0.327517,-1.957786 -0.486321,-2.160405c-0.159643,-0.202644 -0.382131,-1.595499 -0.496279,-3.096718c-0.319262,-4.210814 -0.38873,-4.267876 -4.960991,-4.04126c-4.93786,0.245668 -7.367089,-0.074435 -7.367089,-0.968539c0,-0.516939 0.277102,-0.688988 1.335793,-0.830419c1.493756,-0.199332 7.050273,-3.401079 8.717735,-5.023044c0.565746,-0.550846 1.870921,-1.419322 2.899856,-1.929639c2.75178,-1.366387 3.925457,-3.657473 2.702996,-5.274471c-0.263017,-0.348226 -0.483033,-0.867637 -0.488816,-1.15465c-0.005807,-0.286196 -0.487185,-1.150521 -1.07028,-1.920544c-1.266326,-1.672428 -2.479692,-3.885768 -2.506976,-4.571445c-0.009934,-0.272111 -0.657554,-1.224957 -1.43835,-2.118221c-0.780796,-0.893288 -1.980101,-2.504503 -2.664123,-3.580566c-0.684837,-1.075248 -1.731146,-2.444947 -2.325015,-3.042943c-0.593846,-0.598813 -1.265462,-1.422634 -1.491261,-1.832048c-0.22664,-0.408599 -0.763424,-1.386232 -1.191867,-2.171156c-0.429283,-0.785763 -1.257207,0.384724 -1.840326,-2.731958c-0.58312,-3.116658 -1.300208,-1.883327 -1.593843,-2.59132c-0.292796,-0.707178 -1.395326,-2.184401 -2.449889,-3.282804c-1.053748,-1.097564 -2.129811,-2.50532 -2.389516,-3.128968c-0.260546,-0.622808 -0.970219,-1.549163 -1.57731,-2.059503c-0.607091,-0.510317 -1.324203,-1.382921 -1.593003,-1.940389c-0.726206,-1.502851 -2.299388,-3.794776 -3.493726,-5.087545c-0.578968,-0.627775 -1.563224,-2.133122 -2.186056,-3.344833c-0.623625,-1.211735 -1.577286,-2.752619 -2.119037,-3.422579c-0.542591,-0.66996 -1.465658,-1.865138 -2.052904,-2.655028c-1.711278,-2.303516 -3.14135,-3.277021 -5.16282,-3.515227c-0.974321,-0.114147 -2.386204,-0.550845 -3.138038,-0.969378c-0.751857,-0.418509 -1.693928,-0.760928 -2.093433,-0.760928c-0.39948,0 -0.957788,-0.205115 -1.24065,-0.45575c-0.43341,-0.382948 -3.09091,-1.859331 -6.544924,-3.635133c-0.448287,-0.230767 -1.98838,-0.585591 -3.422579,-0.788235c-4.946954,-0.698923 -6.406804,-2.488786 -2.201773,-2.698869c0.904853,-0.045496 1.589715,-0.172865 1.523535,-0.282861c-0.066996,-0.110836 0.168737,-0.463189 0.522722,-0.784108c0.354849,-0.320918 0.644333,-0.706361 0.644333,-0.857702c0,-0.150549 0.653403,-1.161272 1.451572,-2.24643c3.722837,-5.05695 4.229026,-6.860059 2.974291,-10.596118c-1.94454,-5.790595 0.56078,-4.640913 8.055214,3.69553c0.679894,0.755145 1.391198,1.373826 1.580621,1.373826c0.190237,0 1.420977,1.100059 2.735246,2.444946l2.390356,2.444106l2.548319,0c2.391172,-0.00084 2.755115,-0.100902 5.90971,-1.630244l3.360526,-1.628564l3.409358,0c3.074377,0 3.535071,-0.080242 4.69963,-0.815542c0.709673,-0.448288 1.603777,-0.814702 1.986724,-0.814702c1.157961,0 3.892391,-1.688122 4.462265,-2.755091c1.030568,-1.928822 1.699712,-4.247215 1.699712,-5.886554c0,-0.912292 0.127369,-1.798142 0.282861,-1.967695c1.557465,-1.70715 1.728674,-6.179326 0.287829,-7.534147c-1.908955,-1.794831 -4.779033,-3.70628 -5.863374,-3.905613c-0.584752,-0.106684 -2.221619,-0.863509 -3.636789,-1.680683c-1.416011,-0.818013 -3.176119,-1.591347 -3.91142,-1.719556c-1.29524,-0.225799 -4.975893,-1.511969 -6.252944,-2.186056c-0.344914,-0.181144 -1.286146,-0.597181 -2.093409,-0.924699c-2.146368,-0.870948 -4.237281,-2.176962 -4.237281,-2.647589c0,-0.550846 0.710489,-0.51778 1.486318,0.068651c2.144688,1.621966 6.238042,0.463189 7.442315,-2.10831c0.293635,-0.627776 0.973529,-1.639315 1.511129,-2.248901c0.536808,-0.609587 1.405261,-1.856044 1.929663,-2.770832c0.524378,-0.913949 1.236522,-1.96604 1.583092,-2.336582c0.731989,-0.782452 2.023918,-2.932923 3.021419,-5.029643c0.384603,-0.807264 1.264646,-2.22493 1.957785,-3.152124c0.692276,-0.926354 1.645122,-2.540041 2.117381,-3.585509c0.472284,-1.045469 1.224141,-2.664123 1.671589,-3.5971c1.00494,-2.097561 1.085997,-1.899884 -1.859331,-4.5152a278.764991,278.764991 0 0 1 -4.325777,-3.927952c-1.034719,-0.966883 -2.034692,-1.757614 -2.222458,-1.757614c-0.187743,0 -2.018135,-1.02644 -4.067728,-2.281991c-2.050409,-1.254711 -3.948613,-2.281175 -4.218253,-2.281175c-0.270479,0 -1.099243,-0.44001 -1.841142,-0.977633c-1.346543,-0.976002 -3.239804,-1.272108 -4.533388,-0.710489m28.37979,16.6158c-0.268824,0.089336 -0.904038,0.507845 -1.410228,0.92969c-0.507005,0.42098 -1.181116,0.765895 -1.497884,0.765895c-0.550029,0 -1.655055,0.945382 -1.655055,1.415194c0,0.122402 -0.569874,1.063658 -1.264646,2.09257c-0.695611,1.028935 -1.698056,2.750987 -2.226585,3.82621c-1.238178,2.517725 -1.733617,3.343178 -2.563221,4.269556c-0.371357,0.414382 -1.225772,1.823769 -1.897388,3.131439c-0.672432,1.307646 -1.621966,2.817959 -2.110782,3.356399c-3.592973,3.956075 -3.777404,8.963403 -0.330013,8.963403c0.510317,0 1.886638,0.586407 3.05866,1.303518c1.171183,0.717112 2.34402,1.303519 2.606222,1.303519c0.262177,0 1.396141,0.516123 2.520196,1.146371c2.385389,1.337448 4.213286,2.226585 5.750066,2.795643c2.464791,0.913132 3.016476,4.287744 1.247273,7.630082c-0.189398,0.358135 -0.457382,1.898228 -0.594685,3.422579c-0.137304,1.523535 -0.346546,3.169496 -0.465661,3.657497c-0.643493,2.634344 2.157094,1.736089 6.08423,-1.951163c1.095092,-1.028096 2.363049,-2.114093 2.81796,-2.412672c0.882514,-0.579808 2.330798,-2.215835 2.349803,-2.656684c0.014061,-0.316791 1.447445,-2.238151 2.698053,-3.614473c0.490472,-0.540935 1.184404,-1.603753 1.540884,-2.363049c0.356504,-0.758456 1.055403,-1.796486 1.551658,-2.305987c1.112465,-1.139748 2.044626,-2.540041 2.044626,-3.071066c0,-0.218337 0.562435,-1.066969 1.250584,-1.885798c0.688173,-0.818014 1.655871,-2.220802 2.151311,-3.117378c0.494623,-0.896575 1.105866,-1.860987 1.356477,-2.143872c0.251427,-0.283701 0.456566,-1.020657 0.456566,-1.639338c0,-0.617842 0.200148,-1.413515 0.44416,-1.766708c0.502039,-0.726182 0.833707,-2.144688 1.076064,-4.604511l0.166242,-1.680683l-1.807236,-1.334953c-0.993351,-0.733645 -1.91061,-1.334953 -2.038003,-1.334953c-0.12653,0 -1.136437,-0.842825 -2.243935,-1.874233c-2.894889,-2.693901 -4.342334,-3.776587 -6.190915,-4.626851c-3.554939,-1.636867 -7.008113,-3.408518 -7.008113,-3.596284c0,-0.10918 -0.842825,-0.475595 -1.874232,-0.813886c-1.030568,-0.339108 -2.02063,-0.712961 -2.200118,-0.832051c-0.602124,-0.398689 -1.300207,-0.547558 -1.792335,-0.382972m25.027518,23.616475c-0.286173,0.224144 -0.834547,1.066969 -1.218334,1.874232c-1.491285,3.137223 -3.177751,6.214072 -3.793961,6.920433c-0.354008,0.406943 -1.37217,1.839487 -2.262147,3.184374c-0.889952,1.344047 -1.69556,2.517725 -1.789023,2.607037c-0.093463,0.090176 -0.442505,0.602964 -0.775829,1.141428a15.887963,15.887963 0 0 1 -1.324203,1.792335c-0.395377,0.448311 -0.988407,1.548346 -1.317604,2.444946c-0.329173,0.896575 -1.145531,2.436667 -1.815491,3.422579c-0.669144,0.985911 -1.487974,2.379606 -1.817986,3.096693c-0.330853,0.717112 -0.688173,1.377138 -0.794858,1.466474c-0.59387,0.500406 -3.182718,4.319994 -3.561538,5.256282c-0.425132,1.049596 -2.393668,3.950269 -3.621912,5.337341c-1.181932,1.334953 -4.238937,5.923771 -5.027171,7.545712c-0.448288,0.923883 -1.040502,1.865978 -1.316765,2.095089c-2.37795,1.973479 -1.797302,3.779875 1.82377,5.669825c0.985935,0.515283 2.232368,1.266301 2.770832,1.669117c0.537623,0.403632 1.78408,1.050436 2.769152,1.43751c0.985911,0.387915 1.939572,0.81967 2.11906,0.960284c1.233211,0.963572 3.624407,1.972639 4.674819,1.972639c0.930505,0 1.734457,0.355664 3.311767,1.466474c3.412645,2.403577 4.055298,2.257179 8.256201,-1.874233c1.86845,-1.837831 3.784843,-3.938702 4.257966,-4.669036c0.473099,-0.730333 1.291113,-1.645937 1.817146,-2.034691c0.526058,-0.388731 1.246457,-1.331642 1.601306,-2.095065c0.746866,-1.606248 2.856832,-3.942014 3.309247,-3.66244c0.169578,0.104213 0.224984,-0.025652 0.123242,-0.290324c-0.266328,-0.695588 0.34657,-1.669933 2.597967,-4.133068c2.251384,-2.463126 3.153761,-3.544158 3.925455,-4.907235c0.344916,-0.608753 0.931323,-1.401955 1.30352,-1.762563c0.372198,-0.361447 1.064498,-1.167895 1.536781,-1.793175a40.962608,40.962608 0 0 1 1.733618,-2.114093c0.480538,-0.537624 1.30767,-1.879199 1.837015,-2.98173c0.530161,-1.101715 1.180276,-2.183585 1.444949,-2.402762c0.264673,-0.220016 0.480562,-0.589742 0.480562,-0.821325c0,-0.232422 0.109996,-0.470627 0.244828,-0.530185c0.513628,-0.228271 3.123977,-5.884058 3.123977,-6.768228c0,-1.322547 -0.934633,-3.117377 -2.08182,-3.995764c-0.540935,-0.414382 -1.876727,-1.523535 -2.968508,-2.464791c-1.092596,-0.941255 -2.133122,-1.711301 -2.312586,-1.711301c-0.180328,0 -1.095932,-0.770022 -2.035531,-1.711278c-2.192656,-2.19599 -5.693005,-5.266217 -6.158665,-5.401864c-0.755145,-0.220833 -2.028069,-0.909821 -3.546637,-1.92136c-2.350643,-1.56572 -4.535884,-2.085971 -5.522611,-1.314293m-32.524448,36.099207c-0.2688,0.173705 -1.094276,0.318447 -1.833703,0.320919c-0.739428,0.003311 -2.174467,0.372197 -3.187686,0.819669c-1.349014,0.597181 -2.4102,0.815542 -3.962674,0.815542c-1.165399,0 -2.591344,0.196837 -3.168656,0.437538c-0.576497,0.240677 -1.616999,0.544246 -2.31177,0.674087c-0.694772,0.130681 -2.338238,0.740267 -3.65169,1.354821c-1.314293,0.61537 -2.523509,1.119064 -2.688935,1.119064c-0.16461,0 -0.977657,0.300258 -1.807236,0.666649c-2.806394,1.241489 -1.515281,3.258832 3.21744,5.028011c0.896599,0.33498 3.001598,1.537597 4.677314,2.672402c4.844396,3.279468 6.326563,2.804713 9.204919,-2.94948c1.760085,-3.517698 2.410201,-4.439925 3.13144,-4.439925c2.375454,0 5.301754,-4.148785 4.464736,-6.329874c-0.220016,-0.574026 -1.332481,-0.674928 -2.083499,-0.189423m58.997755,29.110963c0,0.92969 -2.711275,3.176935 -3.779059,3.133095c-0.344099,-0.014061 -0.440034,-0.099246 -0.214234,-0.190238c0.224144,-0.090152 0.407759,-0.372197 0.407759,-0.62612s0.136488,-0.461533 0.30357,-0.461533c0.167898,0 0.397824,-0.294451 0.511972,-0.653403c0.34573,-1.089309 2.769992,-2.141401 2.769992,-1.201801"/>
  <path stroke="null" transform="rotate(12 240.85052490234344,186.37619018554693) " id="svg_2" fill-rule="evenodd" d="m268.293455,31.305925c2.588508,0.09169 6.824396,0.09169 9.412941,0c2.588508,-0.092925 0.47122,-0.167834 -4.705834,-0.167834s-7.294342,0.074909 -4.707108,0.167834m-8.642194,0.489311c0.632613,0.121354 1.547936,0.117497 2.034662,-0.010338s-0.030975,-0.227202 -1.150315,-0.220758c-1.119339,0.005168 -1.518271,0.109742 -0.884347,0.231096m24.168188,0.00517c0.773331,0.116184 1.917204,0.113601 2.543337,-0.006443c0.626171,-0.121354 -0.006442,-0.216901 -1.405945,-0.213043c-1.399464,0.003894 -1.910723,0.101989 -1.137392,0.219486m-62.801161,2.649223c-7.151039,0.35245 -5.40815,-1.58026 -12.714141,14.099373c-3.370866,7.237561 -6.278304,13.273156 -6.459023,13.412601c-0.180757,0.140718 -0.404102,0.597744 -0.49579,1.018623c-0.325334,1.480817 -15.527268,33.838071 -16.070813,34.207302c-0.303386,0.205252 -0.376984,0.376982 -0.161357,0.382152c0.214279,0.003857 -0.157535,1.094769 -0.824981,2.424569c-2.193473,4.363683 -2.343253,3.874372 3.536154,11.602518c2.968076,3.901527 5.622468,7.094258 5.897424,7.094258c0.453167,0 39.589646,-83.341543 39.589646,-84.305969c0,-0.427323 -2.570455,-0.4144 -12.297119,0.064573m21.234946,0.491857c-0.263346,0.426049 7.293069,4.345631 7.6623,3.975126c0.094274,-0.094274 -1.439505,-0.950231 -3.408321,-1.901698c-2.769267,-1.340099 -3.370903,-1.813904 -2.660834,-2.094065c0.797865,-0.315033 0.772057,-0.366646 -0.19881,-0.39766c-0.611939,-0.019365 -1.240694,0.169147 -1.394334,0.418296m-16.535591,19.770946c-30.990038,66.089438 -30.480051,64.957177 -29.603457,65.615635l1.35171,1.017312c0.290501,0.219486 0.86371,0.469947 1.271669,0.55643c0.40927,0.085211 3.605897,1.489881 7.103285,3.119169c80.132032,37.327707 104.089798,48.537773 104.300258,48.805051c0.140718,0.176863 0.595159,0.397621 1.012182,0.490585c0.415711,0.091651 8.59957,3.812421 18.185517,8.267795c9.585945,4.455373 17.555524,8.09996 17.710439,8.09996c0.153639,0 1.156757,-1.888775 2.22703,-4.19716c14.824988,-31.95701 30.230902,-64.797094 30.4917,-64.997215c0.182031,-0.140718 0.406685,-0.597744 0.500921,-1.017351c0.092964,-0.41957 1.638315,-3.949283 3.435439,-7.841745c1.797124,-3.893774 3.209511,-7.131676 3.138534,-7.196247c-0.071015,-0.065847 -6.883836,-3.25985 -15.13871,-7.09939c-8.254874,-3.839539 -21.762984,-10.138518 -30.017895,-13.998733c-8.254874,-3.860177 -20.275725,-9.464554 -26.711526,-12.454617c-6.435802,-2.991336 -11.816873,-5.587597 -11.95628,-5.770939c-0.139445,-0.183304 -0.597742,-0.405374 -1.01735,-0.493168c-0.41957,-0.089068 -15.469174,-7.014181 -33.442996,-15.390446c-17.973822,-8.377537 -32.885293,-15.230361 -33.137027,-15.230361c-0.253045,0 -4.619313,8.872018 -9.703442,19.715437m79.081159,-19.206763c0.560288,0.240162 1.362048,0.437661 1.781618,0.437661c0.480284,0 0.386009,-0.162666 -0.254319,-0.437661c-0.560326,-0.240123 -1.362048,-0.437659 -1.781655,-0.437659c-0.480247,0 -0.386009,0.161392 0.254357,0.437659m6.066571,1.815215c1.937842,0.676511 3.611028,1.142562 3.718185,1.035403c0.234955,-0.234955 -5.941358,-2.357448 -6.703079,-2.304487c-0.295631,0.020637 1.048326,0.5913 2.984894,1.269084m9.960345,3.781447c0.979896,0.535756 2.010131,0.974728 2.290294,0.974728c0.278852,0 -0.293048,-0.438972 -1.272942,-0.974728c-0.978622,-0.537065 -2.008857,-0.974726 -2.28902,-0.974726c-0.280163,0 0.291774,0.437661 1.271669,0.974726m-65.123739,1.102523c0,0.326643 0.141992,0.450582 0.317579,0.276304c0.174315,-0.175589 1.195523,0.13038 2.268344,0.677784c2.797694,1.426583 3.200484,1.18777 0.46609,-0.276267c-2.627275,-1.405945 -3.052013,-1.501493 -3.052013,-0.677821m68.177025,0.002585c0.51257,0.504817 10.174662,5.537257 10.174662,5.298408c0,-0.285295 -7.91145,-4.642536 -9.411632,-5.182186c-0.560324,-0.201433 -0.903749,-0.253045 -0.763031,-0.116222m-100.739532,4.823329c0,0.182031 -2.632443,3.586495 -5.850981,7.564167c-6.611389,8.17356 -6.589441,8.12191 -3.816317,8.953333c2.677614,0.80176 2.791215,0.530623 -3.052013,7.242729c-5.830305,6.6966 -5.641833,6.324786 -3.301162,6.531349l1.786786,0.157498l-9.037269,9.740859c-4.970491,5.357813 -9.123753,9.659545 -9.2296,9.558867c-0.105885,-0.099443 2.356137,-3.746615 5.470101,-8.10513c6.39711,-8.953369 6.486178,-9.166375 3.626534,-8.70935c-1.975298,0.315033 -2.944854,-0.591302 -1.551832,-1.451116c0.265967,-0.165251 3.070104,-3.097184 6.233133,-6.517153l5.74899,-6.218938l-2.290292,-0.254318c-3.196626,-0.355036 -3.092052,-0.623588 4.042208,-10.34894l6.216353,-8.475671l2.503336,0c1.376243,0 2.502025,0.149782 2.502025,0.331813m44.907381,0.033559c0.773331,0.116186 1.918476,0.113601 2.543337,-0.007753c0.626171,-0.120043 -0.006442,-0.21559 -1.405908,-0.213005c-1.399502,0.003857 -1.910762,0.103263 -1.13743,0.220758m11.193284,0c0.773333,0.116186 1.918478,0.113601 2.543339,-0.007753c0.626171,-0.120043 -0.006443,-0.21559 -1.405945,-0.213005c-1.399466,0.003857 -1.910725,0.103263 -1.137394,0.220758m56.086509,1.423999c0.559013,0.455752 1.474336,1.053494 2.034662,1.328489l1.01735,0.499647l-1.01735,-0.828877c-0.560326,-0.455713 -1.475649,-1.053456 -2.034662,-1.32845l-1.018625,-0.499649l1.018625,0.82884m6.359617,3.949283c0,0.145886 1.430478,1.328487 3.179846,2.62469c8.394318,6.226652 18.929146,16.837702 24.966053,25.14681c1.349125,1.85649 2.712447,3.605858 3.028753,3.88471c0.316307,0.280163 0.271136,0.10847 -0.099404,-0.380841c-0.370505,-0.490585 -0.486726,-0.890828 -0.259487,-0.890828c0.228511,0 0.065845,-0.286605 -0.358893,-0.636471c-0.424777,-0.348593 -2.343253,-2.677614 -4.261731,-5.171886c-4.709692,-6.125974 -11.850433,-13.478408 -17.581332,-18.104202c-2.600157,-2.099235 -5.258369,-4.321097 -5.907762,-4.938204c-0.649394,-0.615833 -1.180017,-0.98896 -1.180017,-0.827566s-0.343425,0.009027 -0.762995,-0.339529c-0.419606,-0.348593 -0.763031,-0.513844 -0.763031,-0.366684m-143.271448,4.495412c-3.550349,2.760239 -18.948548,17.749168 -18.233309,17.749168c0.152367,0 -0.762993,1.275526 -2.034662,2.836384c-1.270397,1.559585 -3.621366,4.82202 -5.223536,7.249173c-1.602171,2.428426 -3.11269,4.554778 -3.356709,4.725198c-0.245292,0.171693 -0.422153,0.459609 -0.395037,0.640366c0.087794,0.566768 -2.613078,5.644416 -3.209509,6.036868c-0.313722,0.205291 -0.413128,0.376984 -0.222071,0.380843c0.189784,0.005168 -0.650666,2.140547 -1.868139,4.747146c-1.634456,-2.292877 12.448175,-26.032431 33.630234,-43.04441c3.907933,-3.138534 4.380464,-3.378658 3.966062,-2.015336c-0.149782,0.489311 0.104574,0.24016 0.564183,-0.553847c1.336204,-2.309657 0.659694,-2.075974 -3.617507,1.248447m91.136844,-1.602171l-1.445984,1.510482l7.074895,3.367045c3.891189,1.851322 7.933434,3.714291 8.983034,4.141651c1.049598,0.426012 1.90814,0.941167 1.90814,1.143836c0,0.202706 0.285331,0.373125 0.635198,0.378295c0.349866,0.005168 6.825707,2.904814 14.389874,6.444827c15.551838,7.276289 14.828846,7.059388 15.289766,4.60643c0.573209,-3.055872 -7.752679,-10.795628 -14.706219,-13.672089c-1.909414,-0.788799 -3.790473,-1.753227 -4.180341,-2.143094c-0.388633,-0.389905 -0.843072,-0.672653 -1.008323,-0.628756c-0.165253,0.043897 -2.930659,-1.110275 -6.144029,-2.566559c-9.176676,-4.155847 -18.212671,-5.277771 -20.796011,-2.582066m-89.720561,4.366268c-1.532467,3.155276 -1.362048,3.596831 0.218175,0.561599c0.704901,-1.35688 1.195486,-2.553675 1.089638,-2.659523c-0.107159,-0.107159 -0.694563,0.837866 -1.307813,2.097924m-5.352643,11.508282c-1.869412,3.959619 -3.320564,7.278874 -3.225017,7.375693c0.096821,0.095547 1.705471,-3.064897 3.576195,-7.024517c1.869411,-3.959619 3.320527,-7.278874 3.223706,-7.375693c-0.096821,-0.096821 -1.705471,3.063623 -3.574883,7.024517m145.680509,-0.435076c0,0.087793 0.744941,0.831423 1.653821,1.653821l1.653822,1.495012l-1.49374,-1.653783c-1.393022,-1.541531 -1.813904,-1.887502 -1.813904,-1.495049m5.596662,5.087986c0,0.087794 0.744941,0.831423 1.653821,1.653821l1.653822,1.49374l-1.49374,-1.652549c-1.393022,-1.541494 -1.813904,-1.887502 -1.813904,-1.495012m-34.972878,5.0557c4.291395,10.847276 3.705262,22.076706 -1.745474,33.396514l-2.544649,5.286798l2.520116,3.61747c6.819226,9.791235 9.279976,21.165278 7.005153,32.392123c-1.045741,5.158963 -0.478973,4.625794 -4.269447,4.015129c-11.967928,-1.927542 -23.620822,-9.67891 -29.296214,-19.490783l-1.995934,-3.449634l-2.583378,0.369229c-12.556606,1.797124 -25.03834,-2.117326 -34.331202,-10.767235l-2.796383,-2.602742l1.883607,-2.566596c6.317031,-8.60474 18.212633,-14.568048 30.596273,-15.337484l5.058285,-0.313722l1.21485,-3.026207c4.411476,-10.991889 14.52546,-20.208605 26.317762,-23.983573c3.400606,-1.087053 3.602001,-0.987649 4.966634,2.460713m-123.179065,5.038921c-1.730005,3.68073 -3.064936,6.771472 -2.968077,6.868293c0.096821,0.096821 1.590561,-2.835112 3.319253,-6.515843c1.729968,-3.680767 3.064898,-6.771509 2.968077,-6.86833c-0.096821,-0.096821 -1.590561,2.835112 -3.319253,6.515881m113.505323,-0.52804c-6.500373,3.241797 -12.75287,9.464592 -16.045006,15.96755c-2.401308,4.744525 -2.471049,4.557325 2.290292,6.128521c5.352643,1.766149 7.999282,3.098495 11.976955,6.027843c4.021571,2.962945 3.70916,3.048154 5.863903,-1.598276c3.876957,-8.358174 4.803927,-16.832533 2.729225,-24.93122c-1.133535,-4.420503 -1.14256,-4.423086 -6.815369,-1.594418m53.789736,0.710071c1.69255,2.048858 4.086142,4.438594 4.086142,4.079663c0,-0.158772 0.937272,0.18851 2.083729,0.773331c1.146421,0.584858 2.179276,0.968284 2.295462,0.853372c0.114912,-0.116186 -0.765578,-0.642913 -1.957207,-1.170953c-1.192938,-0.528039 -3.427722,-2.106988 -4.966632,-3.509037c-1.538909,-1.402087 -2.2322,-1.862969 -1.541494,-1.026376m19.945223,1.266499c0.429906,0.699733 1.524714,2.588547 2.43101,4.19716c0.907607,1.60865 1.757121,2.92549 1.890087,2.92549c0.420881,0 -3.097184,-6.286055 -4.119702,-7.361498c-0.979896,-1.028961 -0.979896,-1.028961 -0.201395,0.238849m-6.701768,6.86833c1.260057,0.673889 2.518805,1.226462 2.798968,1.226462c0.280161,0 -0.521598,-0.552573 -1.780344,-1.226462c-1.260059,-0.673925 -2.518805,-1.226498 -2.798968,-1.226498c-0.280163,0 0.521559,0.552573 1.780344,1.226498m-185.101047,1.551794c-1.532467,3.154004 -1.360737,3.595559 0.218212,0.560326c0.704901,-1.355605 1.195486,-2.552364 1.089601,-2.659523c-0.107121,-0.105885 -0.694563,0.837866 -1.307813,2.099197m197.156732,0.986375c0.466051,0.974726 0.937308,1.683523 1.04705,1.57247c0.233645,-0.23237 -1.311707,-3.347644 -1.658989,-3.347644c-0.129107,0 0.14716,0.799137 0.611939,1.775175m-2.897062,1.786786c1.538909,0.813371 3.02748,1.478234 3.307604,1.478234c0.278889,0 -0.751382,-0.664862 -2.290292,-1.478234c-1.538909,-0.813332 -3.027479,-1.478232 -3.306331,-1.478232c-0.280163,0 0.750072,0.6649 2.289018,1.478232m-196.815892,2.819643c-0.85341,1.870685 -0.690705,2.270928 0.23106,0.569313c0.431217,-0.793968 0.688159,-1.538909 0.571936,-1.655095c-0.116184,-0.117495 -0.477662,0.371816 -0.802996,1.085781m-2.287745,5.405567c-0.460882,1.172263 -0.753968,2.214109 -0.651977,2.316098c0.101989,0.101989 0.566768,-0.768163 1.032856,-1.935257c0.467326,-1.165821 0.76041,-2.207667 0.651977,-2.314825c-0.107157,-0.10847 -0.571936,0.761719 -1.032856,1.933984m208.834159,2.721472c-0.663589,1.535052 -1.369801,2.789941 -1.568611,2.789941c-0.197538,0 -0.361478,0.286605 -0.361478,0.636471s-2.929386,6.931592 -6.508126,14.627451c-18.929185,40.701194 -23.836414,51.156019 -24.125602,51.387115c-0.174278,0.139445 -0.392453,0.597744 -0.484143,1.017351c-0.092925,0.41957 -1.284552,3.15917 -2.647912,6.085935c-1.364633,2.928074 -2.433595,5.369423 -2.375503,5.426241c0.05682,0.056781 4.252669,-0.025844 9.323875,-0.182068l9.219299,-0.285294l1.146419,-2.343255c0.631341,-1.287137 5.836786,-12.415888 11.568996,-24.728512c5.732174,-12.312589 10.568426,-22.500172 10.747872,-22.640891c0.179447,-0.139445 0.398932,-0.597742 0.488,-1.017312c0.090379,-0.419608 1.190355,-2.938412 2.445244,-5.596662c1.254852,-2.658249 2.305761,-4.94723 2.334189,-5.087986c0.028391,-0.139407 0.925661,-2.06047 1.993349,-4.269448l1.941699,-4.013816l-3.390231,-4.3805c-9.403915,-12.149921 -8.123219,-11.175195 -9.747338,-7.424762m-120.899073,1.748096c-7.530645,1.980428 -19.080239,9.148247 -19.080239,11.841367c0,3.985427 18.02933,10.568426 26.767072,9.774419c4.965323,-0.450545 4.858164,-0.295631 3.665225,-5.313876c-0.830113,-3.49357 -0.988923,-5.563102 -0.82884,-10.808549l0.197537,-6.486178l-3.580052,0.02839c-1.968817,0.014196 -5.182222,0.449272 -7.140703,0.964427m15.327184,0.294358c-1.169679,3.048117 0.170382,17.481888 1.790643,19.290661c1.168406,1.305228 16.715038,-8.860408 16.715038,-10.92994c0,-2.681472 -17.629088,-10.645883 -18.505681,-8.360721m105.500874,12.577244c1.953348,2.14699 1.944322,2.3058 -0.826255,13.491331c-2.753798,11.115829 -2.593678,10.827913 -4.898204,8.804861l-1.785475,-1.568611l-0.293084,1.656406c-0.160083,0.910192 -0.658421,4.517361 -1.107691,8.01606c-0.447999,3.497427 -0.985064,7.046467 -1.191627,7.885644l-0.37571,1.525988l-1.244551,-1.901661c-1.733862,-2.649223 -1.578949,-2.917776 -4.24364,7.371799c-2.136653,8.251015 -3.844709,13.03689 -3.125613,8.759691c0.139445,-0.830151 0.837904,-6.318342 1.550558,-12.193856c0.713928,-5.876787 1.42014,-11.242351 1.569885,-11.923993l0.27241,-1.238109l1.194212,1.492428c1.591833,1.993349 1.560858,2.069532 2.841591,-6.653977c1.310396,-8.9185 1.223876,-8.757106 3.725901,-7.056803c2.508506,1.70416 2.442659,1.826787 4.083559,-7.690728c2.077287,-12.045347 1.68738,-11.157142 3.853735,-8.77647m-87.743991,3.006842c-2.844139,2.50461 -5.503662,4.261694 -8.902956,5.881955c-2.666002,1.271669 -4.944684,2.397451 -5.063453,2.502025c-0.507402,0.449272 4.887865,7.512555 7.800433,10.210807c4.158431,3.852462 7.879201,6.018815 13.575229,7.903733c5.692209,1.884918 5.533401,2.051443 5.543738,-5.765771c0.011612,-8.837147 -1.649962,-14.395042 -6.47715,-21.664889c-2.183135,-3.288279 -1.582808,-3.374762 -6.47584,0.93214m93.425862,17.932472c0.437661,-0.271099 0.525455,2.385839 0.34597,10.527112c-0.160081,7.241418 -0.098095,9.610478 0.182068,7.073583c0.6752,-6.09496 0.313722,-20.371234 -0.479011,-18.985964m-2.826048,6.036906c-1.868137,3.809838 -1.696444,4.26042 0.213007,0.560288c0.845619,-1.637041 1.451116,-3.06104 1.346542,-3.165614c-0.103264,-0.104574 -0.805581,1.068962 -1.559549,2.605325m-138.360361,2.907399c-1.178705,2.866088 -1.238109,2.72537 1.525988,3.611028c1.328489,0.426049 9.161207,2.962907 17.40578,5.637937c22.480808,7.29438 22.440769,6.878668 -0.367956,-3.760771c-18.689061,-8.718378 -17.394133,-8.336226 -18.563812,-5.488193m135.469704,3.410906c-0.35114,0.848204 -0.877905,1.542805 -1.170953,1.542805c-0.293084,0 -0.388594,0.143303 -0.214316,0.317581c0.174278,0.174315 -0.13038,1.195523 -0.679095,2.269654c-0.547403,1.072858 -0.983753,2.132796 -0.969558,2.353554c0.014196,0.22076 0.943752,-1.396917 2.066949,-3.594246c1.123197,-2.19733 1.944284,-4.093859 1.824242,-4.21394c-0.12008,-0.12008 -0.506091,0.476388 -0.857268,1.324593m-144.501803,16.295468c0,0.361476 18.441183,6.603636 32.478606,10.993163l3.731108,1.167095l3.263709,-6.886382c3.509037,-7.402812 3.591663,-7.641625 2.628547,-7.654547c-0.349866,-0.003859 -8.45241,-2.561428 -18.004759,-5.680562c-9.553697,-3.120443 -17.474173,-5.674118 -17.602007,-5.674118c-0.127796,0 -1.642209,2.993921 -3.36315,6.65274m136.333414,2.32771c0.844346,-1.637004 1.451152,-3.06104 1.346578,-3.165614c-0.104574,-0.104574 -0.80689,1.069001 -1.560858,2.605325m10.682027,2.137964c0.127796,-0.490622 0.127796,-1.291033 0,-1.781654c-0.127833,-0.489311 -0.232407,-0.089068 -0.232407,0.890826m-14.263352,6.894137c-0.894685,1.815177 -1.615093,3.467726 -1.602171,3.672978c0.014195,0.20398 0.830113,-1.19676 1.813904,-3.113964c0.983753,-1.917204 1.705471,-3.569714 1.602171,-3.673014c-0.101989,-0.101991 -0.917945,1.298786 -1.813904,3.114m-166.415881,79.739542c0.17173,0.250461 0.458335,0.433802 0.637782,0.407996c0.179446,-0.024533 3.130779,1.359463 6.557191,3.077819c3.427686,1.718356 8.749354,4.087416 11.827172,5.264849c3.079131,1.177432 6.054961,2.323851 6.615285,2.545922c0.559015,0.223343 1.360737,0.457024 1.780307,0.520286c0.419608,0.063262 2.67634,0.614523 5.014388,1.225188c2.338085,0.611937 4.482491,1.035403 4.766511,0.939893c0.282748,-0.094274 -1.287137,-0.593885 -3.488363,-1.110314m-7.763015,-85.0057c-3.267603,7.052946 -3.395438,8.031529 -1.074132,8.194197c1.391749,0.098131 14.497033,4.457957 14.671348,4.880149c0.094236,0.228513 0.338217,0.312411 0.542235,0.185888c0.205252,-0.126522 4.565078,1.139979 9.690482,2.813164c5.12413,1.674497 9.357433,2.978413 9.405226,2.898372c0.047754,-0.080041 1.523403,-3.218538 3.280524,-6.972867c3.347644,-7.160103 3.3851,-7.556452 0.753968,-7.982464c-0.317618,-0.050377 -8.023813,-2.521427 -17.124306,-5.488229c-9.10053,-2.968077 -16.640165,-5.396503 -16.755077,-5.396503c-0.114912,0 -1.6409,3.090741 -3.390268,6.868293m152.409395,-3.221123c-0.478973,1.993351 -0.778463,3.715602 -0.664862,3.827929c0.112327,0.113601 0.601638,-1.418866 1.088327,-3.404463c0.486728,-1.985634 0.786254,-3.707886 0.6649,-3.82924c-0.12008,-0.120043 -0.610665,1.412424 -1.088364,3.405774m-15.754505,3.756914c-1.035405,2.094067 -1.871997,3.973815 -1.857801,4.179069c0.014195,0.20529 0.94375,-1.423999 2.066949,-3.621328c1.123197,-2.197367 1.95979,-4.078389 1.857799,-4.180379c-0.100678,-0.100717 -1.031544,1.528573 -2.066947,3.622638m13.686283,3.609717c-14.192373,31.370916 -8.18,21.375701 -4.900786,14.050346c2.713757,-6.060091 6.238301,-15.806156 5.989113,-16.554954c-0.086483,-0.260762 -0.577066,0.866294 -1.088327,2.504608m-157.973769,12.013099c-2.969388,6.190547 -3.010701,6.28864 -3.221123,7.664884c-0.12008,0.784941 1.454973,1.435646 10.288263,4.253977c5.737342,1.830683 10.507748,3.53226 10.600674,3.78272c0.094274,0.250462 0.344734,0.347283 0.55643,0.216903c0.211731,-0.13038 3.53357,0.799137 7.383448,2.065675c3.849877,1.267773 7.059388,2.2322 7.131675,2.143094c0.347321,-0.42474 5.774835,-11.998867 6.073052,-12.947786c0.327917,-1.050909 -0.259489,-1.613782 -2.092755,-1.998518c-0.34084,-0.071015 -3.088157,-0.93731 -6.105337,-1.924959c-9.307056,-3.045532 -27.677225,-8.984307 -27.776631,-8.979138c-0.05165,0.002583 -1.328489,2.578208 -2.837695,5.723146m138.963271,-5.091845c-3.676873,8.101272 1.012182,-0.636471 0.730709,-0.636471c-0.120044,0 -0.449272,0.286605 -0.730709,0.636471m-144.824589,17.935093c-0.175589,0.698459 -0.55643,1.27167 -0.848204,1.27167c-0.290462,0 -0.398932,0.21042 -0.240123,0.467362c0.160083,0.256902 0.001274,0.778463 -0.351178,1.156757c-0.35245,0.379569 -0.70876,1.02765 -0.791384,1.440778c-0.083936,0.413128 -0.942478,2.434906 -1.908177,4.491518c-1.953311,4.15974 -2.033352,4.479906 -1.120614,4.494101c0.349866,0.005168 8.404656,2.562702 17.89895,5.681871c9.495568,3.119132 17.416081,5.671496 17.60328,5.671496c0.1872,0 1.777722,-3.116547 3.536119,-6.925111c3.57361,-7.744924 3.627843,-7.277563 -1.007013,-8.633169c-1.538909,-0.450545 -9.34968,-2.971934 -17.355366,-5.604377c-16.820922,-5.529504 -15.01346,-5.117649 -15.416288,-3.512895m-31.774979,5.839332c0.942476,1.252306 3.77242,4.361137 6.291225,6.908333c4.282368,4.330161 4.330124,4.36372 0.747525,0.520323a403.349419,403.349419 0 0 1 -6.289951,-6.908369c-1.977843,-2.251565 -2.125043,-2.353554 -0.748798,-0.520287m21.808192,15.995941c0,1.612509 18.163568,11.840095 23.037236,12.971045c0.061988,0.014196 2.50461,0.831425 5.427516,1.816489c2.924216,0.98379 5.392682,1.789369 5.486918,1.789369c0.237539,0 4.716134,-9.696961 4.716134,-10.212079c0,-0.231096 -7.154898,-2.744733 -15.899082,-5.586324c-8.744185,-2.842865 -16.14958,-5.370696 -16.455549,-5.618572c-0.304696,-0.247877 -0.673925,-0.333087 -0.819813,-0.1872c-0.144613,0.144575 -0.867567,0.034833 -1.604756,-0.245292c-1.265225,-0.481558 -1.412387,-0.367957 -2.614352,2.003687m-1.528571,7.126508c1.26002,0.866294 2.290292,1.460179 2.290292,1.320734c0,-0.139445 -1.030272,-0.963115 -2.290292,-1.82941c-1.258785,-0.866295 -2.28902,-1.461452 -2.28902,-1.320734m56.941154,19.960729c-0.116184,-0.100717 -2.500751,-0.304697 -5.299717,-0.454441c-3.400568,-0.180759 -4.328851,-0.131692 -2.797658,0.14716m17.044267,0.312449c-19.226126,14.648088 -19.626331,14.543514 -20.606265,14.543514m-175.187145,71.442083"/>
 </g>
</svg>